<svg width="22" height="24" viewBox="0 0 22 24" fill="none" xmlns="http://www.w3.org/2000/svg">
<g opacity="0.25">
<path d="M19.5345 8.97998C19.5345 8.97998 18.8875 16.995 18.5135 20.371C18.3345 21.984 17.3385 22.929 15.7065 22.958C12.6025 23.014 9.49347 23.018 6.39047 22.953C4.82047 22.92 3.84147 21.964 3.66647 20.38C3.28947 16.974 2.64648 8.97998 2.64648 8.97998" stroke="#444444" stroke-linecap="square"/>
<path d="M21.182 5.18018H1" stroke="#444444" stroke-linecap="square"/>
<path d="M17.2927 5.15198C16.3577 5.15198 15.5537 4.49199 15.3707 3.57599L15.0807 2.12903C14.9027 1.46203 14.2977 1 13.6087 1H8.57166C7.88266 1 7.27767 1.46203 7.09967 2.12903L6.81067 3.57599C6.62767 4.49199 5.82267 5.15198 4.88867 5.15198" stroke="#444444" stroke-linecap="square"/>
</g>
</svg>
