<svg width="16" height="16" viewBox="0 0 16 16" fill="none" xmlns="http://www.w3.org/2000/svg">
<path d="M0 0V10.125H2.25V12.9904L3.16406 12.2518L5.8185 10.125H11.25V0H0ZM1.125 1.125H10.125V9H5.4315L5.27344 9.12319L3.375 10.6346V9H1.125V1.125ZM12.375 3.375V4.5H14.625V11.25H12.375V12.8846L10.3185 11.25H6.09975L4.6935 12.375H9.9315L13.5 15.2404V12.375H15.75V3.375H12.375Z" fill="#119C49"/>
<path d="M4.46913 7.31143V2.40234H5.81087C6.19244 2.40234 6.5396 2.44866 6.85236 2.54128C7.16512 2.6339 7.4122 2.77799 7.5936 2.97353C7.78126 3.16907 7.87509 3.42636 7.87509 3.7454C7.87509 4.09017 7.78126 4.37061 7.5936 4.58673C7.4122 4.80286 7.16512 4.96238 6.85236 5.06529C6.5396 5.16306 6.19244 5.21195 5.81087 5.21195H5.49185V7.31143H4.46913ZM5.49185 4.68708H5.73581C6.09235 4.68708 6.36758 4.60989 6.56149 4.45552C6.76166 4.296 6.86174 4.07473 6.86174 3.79171C6.86174 3.4984 6.76166 3.28999 6.56149 3.16649C6.36758 3.03785 6.09235 2.97353 5.73581 2.97353H5.49185V4.68708ZM3.78418 6.19994V5.72138L4.51604 5.67507H7.29335V6.19994H3.78418ZM3.78418 5.21195V4.73339L4.51604 4.68708H4.89135V5.21195H3.78418Z" fill="#119C49"/>
</svg>
