<svg width="16" height="16" viewBox="0 0 16 16" fill="none" xmlns="http://www.w3.org/2000/svg">
<path d="M0.125 0.6875V10.8125H2.375V13.6779L3.28906 12.9393L5.9435 10.8125H11.375V0.6875H0.125ZM1.25 1.8125H10.25V9.6875H5.5565L5.39844 9.81069L3.5 11.3221V9.6875H1.25V1.8125ZM12.5 4.0625V5.1875H14.75V11.9375H12.5V13.5721L10.4435 11.9375H6.22475L4.8185 13.0625H10.0565L13.625 15.9279V13.0625H15.875V4.0625H12.5Z" fill="#444444"/>
<path d="M4.59315 7.99991V3.09082H5.93489C6.31646 3.09082 6.66362 3.13713 6.97639 3.22976C7.28915 3.32238 7.53623 3.46646 7.71763 3.662C7.90528 3.85754 7.99911 4.11483 7.99911 4.43387C7.99911 4.77864 7.90528 5.05909 7.71763 5.27521C7.53623 5.49133 7.28915 5.65085 6.97639 5.75377C6.66362 5.85154 6.31646 5.90043 5.93489 5.90043H5.61588V7.99991H4.59315ZM5.61588 5.37555H5.85983C6.21638 5.37555 6.49161 5.29837 6.68552 5.14399C6.88568 4.98447 6.98577 4.7632 6.98577 4.48019C6.98577 4.18688 6.88568 3.97847 6.68552 3.85497C6.49161 3.72633 6.21638 3.662 5.85983 3.662H5.61588V5.37555ZM3.9082 6.88842V6.40986L4.64006 6.36355H7.41738V6.88842H3.9082ZM3.9082 5.90043V5.42187L4.64006 5.37555H5.01538V5.90043H3.9082Z" fill="#444444"/>
</svg>
