<svg width="50" height="23" viewBox="0 0 50 23" fill="none" xmlns="http://www.w3.org/2000/svg">
<g clip-path="url(#clip0_3628_10027)">
<path fill-rule="evenodd" clip-rule="evenodd" d="M10.7169 0.410156H45.9226C48.1544 0.410156 50.0048 1.92348 50 3.81855V19.0018C50 20.865 48.1878 22.4102 45.9226 22.4102H10.7217C9.39592 22.4102 8.17509 21.883 7.40729 21.0105L0.783292 13.4347C-0.261097 12.2395 -0.261097 10.608 0.783292 9.41284L7.40252 1.83713C8.17032 0.964587 9.39115 0.437423 10.7169 0.410156ZM8 12.4102C8.55229 12.4102 9 11.9624 9 11.4102C9 10.8579 8.55229 10.4102 8 10.4102C7.44772 10.4102 7 10.8579 7 11.4102C7 11.9624 7.44772 12.4102 8 12.4102Z" fill="#E01E28"/>
<mask id="mask0_3628_10027" style="mask-type:luminance" maskUnits="userSpaceOnUse" x="0" y="0" width="50" height="23">
<path fill-rule="evenodd" clip-rule="evenodd" d="M10.7169 0H45.9226C48.1544 0 50.0048 1.56975 50 3.53548V19.2849C50 21.2175 48.1878 22.8204 45.9226 22.8204H10.7217C9.39592 22.8204 8.17509 22.2735 7.40729 21.3685L0.783292 13.5102C-0.261097 12.2704 -0.261097 10.5781 0.783292 9.33837L7.40252 1.48018C8.17032 0.575104 9.39115 0.0282837 10.7169 0ZM8 12.4475C8.55229 12.4475 9 11.983 9 11.4102C9 10.8373 8.55229 10.3729 8 10.3729C7.44772 10.3729 7 10.8373 7 11.4102C7 11.983 7.44772 12.4475 8 12.4475Z" fill="#C4C4C4"/>
</mask>
<g mask="url(#mask0_3628_10027)">
<path d="M10.7169 0.000177503V-1.03711H10.7066L10.6963 -1.03689L10.7169 0.000177503ZM50 3.53566L49 3.53305V3.53566H50ZM7.40728 21.3686L6.65448 22.0514L6.65656 22.0539L7.40728 21.3686ZM7.40252 1.48036L6.65178 0.795127L6.64948 0.797866L7.40252 1.48036ZM45.9226 -1.03711H10.7169V1.03747H45.9226V-1.03711ZM51 3.53826C51.0066 0.823953 48.5228 -1.03711 45.9226 -1.03711V1.03747C47.7861 1.03747 49.0029 2.31591 49 3.53305L51 3.53826ZM51 19.285V3.53566H49V19.285H51ZM45.9226 23.8578C48.5709 23.8578 51 21.9516 51 19.285H49C49 20.4838 47.8047 21.7832 45.9226 21.7832V23.8578ZM10.7217 23.8578H45.9226V21.7832H10.7217V23.8578ZM6.65656 22.0539C7.6357 23.2081 9.14277 23.8578 10.7217 23.8578V21.7832C9.64907 21.7832 8.71445 21.3393 8.15802 20.6833L6.65656 22.0539ZM0.0302691 14.1929L6.65448 22.0514L8.1601 20.6858L1.5361 12.8276L0.0302691 14.1929ZM0.0302693 8.65601C-1.34342 10.2867 -1.34342 12.5623 0.0302691 14.1929L1.5361 12.8276C0.821017 11.9788 0.821227 10.87 1.53631 10.021L0.0302693 8.65601ZM6.64948 0.797866L0.0302693 8.65601L1.53631 10.021L8.15557 2.16286L6.64948 0.797866ZM10.6963 -1.03689C9.13253 -1.00353 7.63078 -0.358944 6.65178 0.795127L8.15326 2.1656C8.70983 1.50951 9.64977 1.06045 10.7375 1.03724L10.6963 -1.03689ZM8 11.4104V13.485C9.10457 13.485 10 12.5561 10 11.4104H8ZM8 11.4104H10C10 10.2646 9.10457 9.33576 8 9.33576V11.4104ZM8 11.4104V9.33576C6.89543 9.33576 6 10.2646 6 11.4104H8ZM8 11.4104H6C6 12.5561 6.89543 13.485 8 13.485V11.4104Z" fill="white"/>
</g>
</g>
<defs>
<clipPath id="clip0_3628_10027">
<rect width="50" height="23" fill="white"/>
</clipPath>
</defs>
</svg>
