<svg width="22" height="22" viewBox="0 0 22 22" fill="none" xmlns="http://www.w3.org/2000/svg">
<path d="M3.66342 13.6979L6.41341 13.6979M10.0801 13.6979L18.3301 13.6979M15.5801 7.28125L18.3301 7.28125M3.66342 7.28125L11.9134 7.28125" stroke="#444444" stroke-width="0.916665" stroke-linecap="round"/>
<path d="M11.9134 7.33333C11.9134 8.34585 12.7342 9.16667 13.7467 9.16667C14.7593 9.16667 15.5801 8.34585 15.5801 7.33333C15.5801 6.32081 14.7593 5.5 13.7467 5.5C12.7342 5.5 11.9134 6.32081 11.9134 7.33333Z" stroke="#444444" stroke-width="0.916665" stroke-linecap="round"/>
<path d="M6.41341 13.7552C6.41341 14.7677 7.23422 15.5885 8.24675 15.5885C9.25927 15.5885 10.0801 14.7677 10.0801 13.7552C10.0801 12.7427 9.25927 11.9219 8.24675 11.9219C7.23422 11.9219 6.41341 12.7427 6.41341 13.7552Z" stroke="#444444" stroke-width="0.916665" stroke-linecap="round"/>
</svg>
