<svg width="16" height="17" viewBox="0 0 16 17" fill="none" xmlns="http://www.w3.org/2000/svg">
<path d="M8.23342 1.27452C8.1455 1.18495 8.04012 1.1144 7.92382 1.06722C7.80751 1.02005 7.68276 0.997255 7.55729 1.00026C7.43182 1.00327 7.3083 1.03201 7.19439 1.08471C7.08049 1.1374 6.97861 1.21293 6.89508 1.3066L1.23283 7.64902C1.08287 7.81701 0.999988 8.03433 1 8.25952V15.2427C1 15.4858 1.09658 15.719 1.26849 15.8909C1.44039 16.0628 1.67355 16.1594 1.91667 16.1594H4.66667C4.90978 16.1594 5.14294 16.0628 5.31485 15.8909C5.48676 15.719 5.58333 15.4858 5.58333 15.2427V12.0344C5.58333 11.7912 5.67991 11.5581 5.85182 11.3862C6.02373 11.2143 6.25688 11.1177 6.5 11.1177H9.25C9.49312 11.1177 9.72627 11.2143 9.89818 11.3862C10.0701 11.5581 10.1667 11.7912 10.1667 12.0344V15.2427C10.1667 15.4858 10.2632 15.719 10.4352 15.8909C10.6071 16.0628 10.8402 16.1594 11.0833 16.1594H13.8333C14.0764 16.1594 14.3096 16.0628 14.4815 15.8909C14.6534 15.719 14.75 15.4858 14.75 15.2427V8.28427C14.7497 8.04418 14.6553 7.81378 14.4869 7.6426L8.23342 1.27452Z" stroke="white" stroke-opacity="0.5" stroke-width="0.916667"/>
</svg>
