<svg width="22" height="22" viewBox="0 0 22 22" fill="none" xmlns="http://www.w3.org/2000/svg">
<path d="M10.9883 2.89447C11.7876 2.89447 12.4355 2.24655 12.4355 1.44727C12.4355 0.647983 11.7876 0 10.9883 0C10.189 0 9.54102 0.647983 9.54102 1.44727C9.54102 2.24655 10.189 2.89447 10.9883 2.89447Z" fill="#004ADA"/>
<path d="M6.93835 3.7572C7.73764 3.7572 8.38562 3.10928 8.38562 2.31C8.38562 1.51071 7.73764 0.862793 6.93835 0.862793C6.13907 0.862793 5.49121 1.51071 5.49121 2.31C5.49121 3.10928 6.13907 3.7572 6.93835 3.7572Z" fill="#004ADA"/>
<path d="M3.61792 6.06543C4.33728 6.06543 4.92041 5.4823 4.92041 4.76294C4.92041 4.04358 4.33728 3.46045 3.61792 3.46045C2.89856 3.46045 2.31543 4.04358 2.31543 4.76294C2.31543 5.4823 2.89856 6.06543 3.61792 6.06543Z" fill="#004ADA"/>
<path d="M1.58765 9.55426C2.307 9.55426 2.89014 8.97113 2.89014 8.25177C2.89014 7.53241 2.307 6.94922 1.58765 6.94922C0.86829 6.94922 0.285156 7.53241 0.285156 8.25177C0.285156 8.97113 0.86829 9.55426 1.58765 9.55426Z" fill="#004ADA"/>
<path d="M1.15784 13.6007C1.79726 13.6007 2.31555 13.0824 2.31555 12.4429C2.31555 11.8035 1.79726 11.2852 1.15784 11.2852C0.518413 11.2852 0 11.8035 0 12.4429C0 13.0824 0.518413 13.6007 1.15784 13.6007Z" fill="#004ADA"/>
<path d="M2.31787 17.3698C2.9573 17.3698 3.47571 16.8514 3.47571 16.212C3.47571 15.5726 2.9573 15.0542 2.31787 15.0542C1.67845 15.0542 1.16016 15.5726 1.16016 16.212C1.16016 16.8514 1.67845 17.3698 2.31787 17.3698Z" fill="#004ADA"/>
<path d="M5.05798 20.5491C5.61748 20.5491 6.07104 20.0955 6.07104 19.536C6.07104 18.9765 5.61748 18.5229 5.05798 18.5229C4.49849 18.5229 4.04492 18.9765 4.04492 19.536C4.04492 20.0955 4.49849 20.5491 5.05798 20.5491Z" fill="#004ADA"/>
<path d="M8.81775 21.9993C9.37725 21.9993 9.83081 21.5457 9.83081 20.9862C9.83081 20.4267 9.37725 19.9731 8.81775 19.9731C8.25825 19.9731 7.80469 20.4267 7.80469 20.9862C7.80469 21.5457 8.25825 21.9993 8.81775 21.9993Z" fill="#004ADA"/>
<path d="M13.0178 21.9984C13.4974 21.9984 13.8861 21.6096 13.8861 21.1301C13.8861 20.6505 13.4974 20.2617 13.0178 20.2617C12.5383 20.2617 12.1494 20.6505 12.1494 21.1301C12.1494 21.6096 12.5383 21.9984 13.0178 21.9984Z" fill="#004ADA"/>
<path d="M16.7786 20.2601C17.2581 20.2601 17.6469 19.8714 17.6469 19.3918C17.6469 18.9122 17.2581 18.5234 16.7786 18.5234C16.299 18.5234 15.9102 18.9122 15.9102 19.3918C15.9102 19.8714 16.299 20.2601 16.7786 20.2601Z" fill="#E6E6E6"/>
<path d="M19.5283 17.0795C19.928 17.0795 20.252 16.7556 20.252 16.356C20.252 15.9563 19.928 15.6323 19.5283 15.6323C19.1287 15.6323 18.8047 15.9563 18.8047 16.356C18.8047 16.7556 19.1287 17.0795 19.5283 17.0795Z" fill="#E6E6E6"/>
<path d="M20.6777 13.3145C21.0774 13.3145 21.4012 12.9905 21.4012 12.5908C21.4012 12.1912 21.0774 11.8672 20.6777 11.8672C20.2781 11.8672 19.9541 12.1912 19.9541 12.5908C19.9541 12.9905 20.2781 13.3145 20.6777 13.3145Z" fill="#E6E6E6"/>
<path d="M20.2478 8.97809C20.5675 8.97809 20.8267 8.71888 20.8267 8.39917C20.8267 8.07946 20.5675 7.82031 20.2478 7.82031C19.9281 7.82031 19.6689 8.07946 19.6689 8.39917C19.6689 8.71888 19.9281 8.97809 20.2478 8.97809Z" fill="#E6E6E6"/>
<path d="M18.2283 5.49371C18.548 5.49371 18.8071 5.23451 18.8071 4.91479C18.8071 4.59508 18.548 4.33594 18.2283 4.33594C17.9086 4.33594 17.6494 4.59508 17.6494 4.91479C17.6494 5.23451 17.9086 5.49371 18.2283 5.49371Z" fill="#E6E6E6"/>
<path d="M14.8981 2.90741C15.1379 2.90741 15.3323 2.71305 15.3323 2.47327C15.3323 2.23348 15.1379 2.03906 14.8981 2.03906C14.6583 2.03906 14.4639 2.23348 14.4639 2.47327C14.4639 2.71305 14.6583 2.90741 14.8981 2.90741Z" fill="#E6E6E6"/>
</svg>
