<svg width="12" height="17" viewBox="0 0 12 17" fill="none" xmlns="http://www.w3.org/2000/svg">
<g clip-path="url(#clip0_6398_13162)">
<path d="M5.99916 16.3974L5.60978 15.9305C5.38222 15.6558 0 9.15428 0 5.9735C0 2.79271 2.69195 -0.0273438 5.99916 -0.0273438C9.30636 -0.0273438 12 2.66461 12 5.9735C12 9.28239 6.61778 15.6558 6.38854 15.9305L5.99916 16.3974ZM5.99916 0.984034C3.24821 0.984034 1.01138 3.22255 1.01138 5.9735C1.01138 8.1311 4.31353 12.7008 5.99916 14.8079C7.68479 12.7008 10.9886 8.1311 10.9886 5.9735C10.9886 3.22255 8.7501 0.984034 5.99916 0.984034Z" fill="#444444"/>
<path d="M5.9992 8.37206C4.67767 8.37206 3.60223 7.29662 3.60223 5.97509C3.60223 4.65356 4.67767 3.57812 5.9992 3.57812C7.32073 3.57812 8.39617 4.65356 8.39617 5.97509C8.39617 7.29662 7.32073 8.37206 5.9992 8.37206ZM5.9992 4.59119C5.23561 4.59119 4.61361 5.21319 4.61361 5.97678C4.61361 6.74037 5.23561 7.36236 5.9992 7.36236C6.76279 7.36236 7.38479 6.74037 7.38479 5.97678C7.38479 5.21319 6.76279 4.59119 5.9992 4.59119Z" fill="#004ADA"/>
</g>
<defs>
<clipPath id="clip0_6398_13162">
<rect width="12" height="16.4248" fill="white"/>
</clipPath>
</defs>
</svg>
