<svg width="15" height="15" viewBox="0 0 15 15" fill="none" xmlns="http://www.w3.org/2000/svg">
<path d="M7.5 0C3.35789 0 0 3.35789 0 7.5C0 11.6423 3.35789 15 7.5 15C11.6423 15 15 11.6423 15 7.5C15 3.35789 11.6423 0 7.5 0ZM7.5 14.0773C3.88148 14.0773 0.9375 11.1185 0.9375 7.49997C0.9375 3.88145 3.88148 0.937471 7.5 0.937471C11.1185 0.937471 14.0625 3.88147 14.0625 7.49997C14.0625 11.1185 11.1185 14.0773 7.5 14.0773ZM10.7812 7.03125H7.96875C7.96875 7.09375 7.96875 7.03125 7.42188 7.03125C6.875 7.03125 7.96875 7.03125 7.03125 7.03125H4.21875C3.96 7.03125 3.75 7.24125 3.75 7.5C3.75 7.75875 3.96 7.96875 4.21875 7.96875H7.03125C7.03125 7.96875 7.21391 7.96875 7.47266 7.96875C7.73141 7.96875 7.96875 7.96875 7.96875 7.96875H10.7812C11.04 7.96875 11.25 7.75875 11.25 7.5C11.25 7.24125 11.04 7.03125 10.7812 7.03125Z" fill="#004ADA"/>
</svg>
