<svg width="19" height="19" viewBox="0 0 19 19" fill="none" xmlns="http://www.w3.org/2000/svg">
<path d="M10.5391 13.0625C10.5391 13.1806 10.4921 13.2939 10.4086 13.3774C10.3251 13.4609 10.2119 13.5078 10.0938 13.5078C9.81818 13.5078 9.55389 13.3983 9.35903 13.2035C9.16416 13.0086 9.05469 12.7443 9.05469 12.4688V9.5C9.05469 9.46063 9.03905 9.42288 9.01121 9.39504C8.98338 9.3672 8.94562 9.35156 8.90625 9.35156C8.78815 9.35156 8.67488 9.30465 8.59137 9.22113C8.50786 9.13762 8.46094 9.02435 8.46094 8.90625C8.46094 8.78815 8.50786 8.67488 8.59137 8.59137C8.67488 8.50785 8.78815 8.46094 8.90625 8.46094C9.18183 8.46094 9.44612 8.57041 9.64098 8.76527C9.83584 8.96013 9.94532 9.22442 9.94532 9.5V12.4688C9.94532 12.5081 9.96095 12.5459 9.98879 12.5737C10.0166 12.6015 10.0544 12.6172 10.0938 12.6172C10.2119 12.6172 10.3251 12.6641 10.4086 12.7476C10.4921 12.8311 10.5391 12.9444 10.5391 13.0625ZM9.20313 6.97656C9.34992 6.97656 9.49341 6.93303 9.61547 6.85148C9.73752 6.76993 9.83265 6.65402 9.88882 6.5184C9.94499 6.38278 9.95969 6.23355 9.93105 6.08958C9.90242 5.94561 9.83173 5.81337 9.72793 5.70957C9.62414 5.60577 9.49189 5.53509 9.34792 5.50645C9.20395 5.47781 9.05472 5.49251 8.91911 5.54868C8.78349 5.60486 8.66757 5.69999 8.58602 5.82204C8.50447 5.94409 8.46094 6.08758 8.46094 6.23438C8.46094 6.43122 8.53914 6.61999 8.67832 6.75918C8.81751 6.89837 9.00629 6.97656 9.20313 6.97656ZM17.0703 9.5C17.0703 10.9973 16.6263 12.4609 15.7945 13.7058C14.9627 14.9508 13.7803 15.9211 12.397 16.4941C11.0137 17.067 9.49161 17.217 8.02311 16.9249C6.55461 16.6327 5.20571 15.9117 4.14698 14.853C3.08826 13.7943 2.36725 12.4454 2.07515 10.9769C1.78305 9.5084 1.93297 7.98626 2.50595 6.60297C3.07893 5.21967 4.04923 4.03735 5.29416 3.20552C6.53909 2.37368 8.00274 1.92969 9.5 1.92969C11.5071 1.93204 13.4312 2.73039 14.8504 4.14958C16.2696 5.56878 17.068 7.49295 17.0703 9.5ZM16.1797 9.5C16.1797 8.17888 15.7879 6.88743 15.054 5.78896C14.32 4.6905 13.2768 3.83434 12.0562 3.32877C10.8357 2.8232 9.49259 2.69092 8.19686 2.94866C6.90113 3.2064 5.71092 3.84258 4.77675 4.77675C3.84258 5.71092 3.2064 6.90112 2.94866 8.19686C2.69093 9.49259 2.82321 10.8357 3.32878 12.0562C3.83435 13.2768 4.6905 14.32 5.78897 15.054C6.88744 15.7879 8.17889 16.1797 9.5 16.1797C11.271 16.1777 12.9688 15.4733 14.2211 14.2211C15.4733 12.9688 16.1777 11.271 16.1797 9.5Z" fill="#004ADA"/>
</svg>
