<svg width="18" height="18" viewBox="0 0 18 18" fill="none" xmlns="http://www.w3.org/2000/svg">
<path d="M9 0C4.02947 0 0 4.02947 0 9C0 13.9708 4.02947 18 9 18C13.9708 18 18 13.9708 18 9C18 4.02947 13.9708 0 9 0ZM9 16.8927C4.65778 16.8927 1.125 13.3422 1.125 8.99996C1.125 4.65775 4.65778 1.12496 9 1.12496C13.3422 1.12496 16.875 4.65776 16.875 8.99996C16.875 13.3422 13.3422 16.8927 9 16.8927ZM12.9375 8.4375H9.5625V5.0625C9.5625 4.752 9.3105 4.5 9 4.5C8.6895 4.5 8.4375 4.752 8.4375 5.0625V8.4375H5.0625C4.752 8.4375 4.5 8.6895 4.5 9C4.5 9.3105 4.752 9.5625 5.0625 9.5625H8.4375V12.9375C8.4375 13.248 8.6895 13.5 9 13.5C9.3105 13.5 9.5625 13.248 9.5625 12.9375V9.5625H12.9375C13.248 9.5625 13.5 9.3105 13.5 9C13.5 8.6895 13.248 8.4375 12.9375 8.4375Z" fill="black"/>
</svg>
