<svg width="11" height="11" viewBox="0 0 11 11" fill="none" xmlns="http://www.w3.org/2000/svg">
<path d="M10.5 6H6V10.5C6 10.6326 5.94728 10.7598 5.85352 10.8535C5.75975 10.9473 5.63261 11 5.5 11C5.36739 11 5.24025 10.9473 5.14648 10.8535C5.05272 10.7598 5 10.6326 5 10.5V6H0.5C0.367392 6 0.240253 5.94731 0.146484 5.85355C0.0527162 5.75978 0 5.63261 0 5.5C0 5.36739 0.0527162 5.24022 0.146484 5.14645C0.240253 5.05269 0.367392 5 0.5 5H5V0.5C5 0.367392 5.05272 0.240222 5.14648 0.146454C5.24025 0.0526857 5.36739 0 5.5 0C5.63261 0 5.75975 0.0526857 5.85352 0.146454C5.94728 0.240222 6 0.367392 6 0.5V5H10.5C10.6326 5 10.7597 5.05269 10.8535 5.14645C10.9473 5.24022 11 5.36739 11 5.5C11 5.63261 10.9473 5.75978 10.8535 5.85355C10.7597 5.94731 10.6326 6 10.5 6Z" fill="#444444"/>
</svg>
