<svg width="83" height="55" viewBox="0 0 83 55" fill="none" xmlns="http://www.w3.org/2000/svg">
<path d="M27.6667 21.375L0.749997 21.375L0.75 54.25L33.8333 54.25L33.8333 20.625C33.8333 9.94904 25.2418 1.15949 14.5833 0.763903L14.5833 6.14361C22.3156 6.52824 28.4167 12.8291 28.4167 20.625L28.4167 21.375L27.6667 21.375ZM76.0833 21.375L49.1667 21.375L49.1667 54.25L82.25 54.25L82.25 20.625C82.25 9.94904 73.6585 1.15948 63 0.763899L63 6.14361C70.7322 6.52824 76.8333 12.8291 76.8333 20.625L76.8333 21.375L76.0833 21.375ZM6.91667 48.875L6.16667 48.875L6.16667 48.125L6.16667 27.5L6.16666 26.75L6.91666 26.75L27.6667 26.75L28.4167 26.75L28.4167 27.5L28.4167 48.125L28.4167 48.875L27.6667 48.875L6.91667 48.875ZM55.3333 48.875L54.5833 48.875L54.5833 48.125L54.5833 27.5L54.5833 26.75L55.3333 26.75L76.0833 26.75L76.8333 26.75L76.8333 27.5L76.8333 48.125L76.8333 48.875L76.0833 48.875L55.3333 48.875Z" fill="white" stroke="#004ADA" stroke-width="1.5"/>
</svg>
