<svg width="16" height="16" viewBox="0 0 16 16" fill="none" xmlns="http://www.w3.org/2000/svg">
<path d="M15.6522 14.5523L12.7304 11.9126C13.913 10.6266 14.6087 9.00212 14.6087 7.17462C14.6087 3.1812 11.3391 0 7.30435 0C3.26957 0 0 3.1812 0 7.10693C0 11.0327 3.26957 14.2139 7.30435 14.2139C9.04348 14.2139 10.713 13.6047 11.9652 12.5894L14.9565 15.2968L15.6522 14.5523ZM1.04348 7.10693C1.04348 3.72268 3.82609 1.01528 7.30435 1.01528C10.7826 1.01528 13.5652 3.72268 13.5652 7.10693C13.5652 10.4912 10.7826 13.1986 7.30435 13.1986C3.82609 13.1986 1.04348 10.4235 1.04348 7.10693Z" fill="#444444"/>
</svg>
