<svg width="14" height="15" viewBox="0 0 14 15" fill="none" xmlns="http://www.w3.org/2000/svg">
<path d="M9.25 3.83984L4.5 6.7168M4.5 8.71094L9.5 11.6669M11.12 4.75C11.62 4.75 12.1 4.55199 12.45 4.20099C12.8 3.84899 13 3.372 13 2.875C13 2.378 12.8 1.90101 12.45 1.54901C12.1 1.19801 11.62 1 11.12 1C10.63 1 10.15 1.19801 9.80005 1.54901C9.45005 1.90101 9.25 2.378 9.25 2.875C9.25 3.372 9.45005 3.84899 9.80005 4.20099C10.15 4.55199 10.63 4.75 11.12 4.75ZM2.87 9.625C3.37 9.625 3.84995 9.42699 4.19995 9.07599C4.54995 8.72399 4.75 8.247 4.75 7.75C4.75 7.253 4.54995 6.77601 4.19995 6.42401C3.84995 6.07301 3.37 5.875 2.87 5.875C2.38 5.875 1.90005 6.07301 1.55005 6.42401C1.20005 6.77601 1 7.253 1 7.75C1 8.247 1.20005 8.72399 1.55005 9.07599C1.90005 9.42699 2.38 9.625 2.87 9.625ZM11.12 10.75C11.62 10.75 12.1 10.948 12.45 11.299C12.8 11.651 13 12.128 13 12.625C13 13.122 12.8 13.599 12.45 13.951C12.1 14.302 11.62 14.5 11.12 14.5C10.63 14.5 10.15 14.302 9.80005 13.951C9.45005 13.599 9.25 13.122 9.25 12.625C9.25 12.128 9.45005 11.651 9.80005 11.299C10.15 10.948 10.63 10.75 11.12 10.75Z" stroke="#004ADA" stroke-linecap="round" stroke-linejoin="round"/>
</svg>
