<svg width="16" height="16" viewBox="0 0 16 16" fill="none" xmlns="http://www.w3.org/2000/svg">
<g clip-path="url(#clip0_3764_7175)">
<path d="M6 5L8 1.5L8.5 1L10.5 5L15 6.5L12 10L12.5 14.5L8.5 12.5L3.5 14.5L4.5 10L1 6L6 5Z" fill="#F4AF26"/>
<path d="M16 5.856L10.9248 4.7168L8.32 0L5.4912 4.7104L0 5.856L3.9552 9.9264L3.0336 15.36L8.2816 13.0112L13.2928 15.36L12.4224 9.8944L16 5.856ZM8.32 11.9552L4.2816 13.7536L4.9792 9.6L1.92 6.4384L6.0992 5.568L8.2752 1.92L10.2912 5.5488L14.2144 6.432L11.4048 9.632L12.0448 13.7472L8.32 11.9552Z" fill="#F4AF26"/>
</g>
<defs>
<clipPath id="clip0_3764_7175">
<rect width="16" height="15.36" fill="white"/>
</clipPath>
</defs>
</svg>
