<svg width="13" height="13" viewBox="0 0 13 13" fill="none" xmlns="http://www.w3.org/2000/svg">
<g clip-path="url(#clip0_6398_10407)">
<path d="M2.77843 1.5397C3.00224 1.5397 3.25844 1.62216 3.45575 1.91517C3.98729 2.70733 4.49969 3.45385 4.78387 3.96331C4.87958 4.13558 4.97234 4.62442 4.66019 4.97633C4.38926 5.28112 4.14926 5.35622 4.00643 5.57855C3.90778 5.73168 3.7944 6.07476 3.97993 6.46789C4.20226 6.93907 4.47319 7.32484 5.06952 7.93001C5.67469 8.52487 6.06046 8.79579 6.53163 9.0196C6.68477 9.09175 6.83201 9.11972 6.96158 9.11972C7.16477 9.11972 7.32821 9.05347 7.42098 8.99457C7.64331 8.85027 7.7184 8.61174 8.0232 8.34081C8.20725 8.17738 8.42664 8.12437 8.61953 8.12437C8.79769 8.12437 8.95377 8.17001 9.03769 8.21713C9.54568 8.50131 10.2922 9.01371 11.0844 9.54525C11.6409 9.91778 11.4377 10.5009 11.3597 10.6834C11.2817 10.8675 10.8782 11.4727 10.0124 11.9262C9.7739 12.0513 9.46028 12.1249 9.07892 12.1249C7.8789 12.1249 6.0207 11.3902 3.81649 9.18598C0.911404 6.27942 0.559496 3.97656 1.07632 2.98856C1.52982 2.12278 2.13499 1.72081 2.31904 1.64277C2.40444 1.60596 2.57966 1.54117 2.77843 1.54117V1.5397ZM2.77843 0.65625C2.44125 0.65625 2.15118 0.750485 1.96713 0.831468C1.60639 0.9846 0.842201 1.5294 0.292988 2.57923C-0.39316 3.89116 -0.0456689 6.57096 3.19071 9.80882C5.97211 12.5902 8.07326 13.0069 9.07745 13.0069C9.58985 13.0069 10.0404 12.9068 10.4203 12.708C11.4687 12.1588 12.0135 11.3961 12.1695 11.0309C12.5376 10.171 12.3035 9.30083 11.5747 8.81199C11.451 8.72953 11.3303 8.64855 11.211 8.56757C10.5513 8.1229 9.92704 7.70473 9.46617 7.44705C9.235 7.31748 8.92579 7.24239 8.61805 7.24239C8.16749 7.24239 7.75816 7.39405 7.4357 7.68117C7.2222 7.87111 7.09115 8.04486 6.99397 8.17296C6.97925 8.1921 6.96158 8.21713 6.94538 8.23627C6.93213 8.23333 6.91888 8.22744 6.90857 8.22302C6.56255 8.05958 6.25187 7.85639 5.69383 7.30865C5.14461 6.74913 4.94289 6.43992 4.77945 6.0939C4.77209 6.07918 4.76767 6.06592 4.7662 6.05709C4.78682 6.04089 4.81037 6.02322 4.82952 6.0085C4.95762 5.91132 5.13136 5.78027 5.3213 5.56677C5.86757 4.95277 5.8499 4.06196 5.55689 3.53631C5.29922 3.07397 4.88105 2.4526 4.43785 1.79443C4.35687 1.67369 4.27294 1.55001 4.19049 1.42633C3.85919 0.931593 3.3571 0.659195 2.77843 0.659195V0.65625Z" fill="#444444"/>
<path d="M13 5.61728H12.1165C12.1165 3.00668 9.99329 0.883452 7.38269 0.883452V0C10.4807 0 13 2.52078 13 5.61728Z" fill="#004ADA"/>
<path d="M10.6588 5.61598H9.77537C9.77537 4.97695 9.52653 4.3762 9.0745 3.92417C8.62247 3.47214 8.02172 3.2233 7.38269 3.2233V2.33984C8.25878 2.33984 9.08039 2.67997 9.70028 3.29986C10.3187 3.91828 10.6603 4.74136 10.6588 5.61745V5.61598Z" fill="#004ADA"/>
</g>
<defs>
<clipPath id="clip0_6398_10407">
<rect width="13" height="13.0059" fill="white"/>
</clipPath>
</defs>
</svg>
