<svg width="949" height="652" viewBox="0 0 949 652" fill="none" xmlns="http://www.w3.org/2000/svg">
<path style="mix-blend-mode:screen" d="M510.811 142.004L417.824 392.351H383.453V142.004H510.811Z" fill="url(#paint0_linear_3798_8633)"/>
<path d="M949 620.355H0V620.924H949V620.355Z" fill="white"/>
<path d="M853.91 650.863H812.724V651.432H853.91V650.863Z" fill="white"/>
<path d="M654.24 641.199H589.518V641.768H654.24V641.199Z" fill="white"/>
<path d="M837.208 633.43H752.747V633.998H837.208V633.43Z" fill="white"/>
<path d="M328.354 642.902H307.286V643.471H328.354V642.902Z" fill="white"/>
<path d="M290.394 642.902H217.511V643.471H290.394V642.902Z" fill="white"/>
<path d="M178.412 634.945H125.837V635.514H178.412V634.945Z" fill="white"/>
<path d="M449.826 535.848H83.3225C77.4387 535.848 72.5039 530.921 72.5039 525.047V10.8003C72.5039 4.92646 77.4387 0 83.3225 0H449.826C455.71 0 460.644 4.92646 460.644 10.8003V525.047C460.644 531.111 455.899 535.848 449.826 535.848ZM83.3225 0.568438C77.6285 0.568438 72.8835 5.11594 72.8835 10.9898V525.237C72.8835 530.921 77.4387 535.658 83.3225 535.658H449.826C455.52 535.658 460.265 531.111 460.265 525.237V10.8003C460.265 5.11594 455.71 0.378959 449.826 0.378959H83.3225V0.568438Z" fill="white"/>
<path d="M860.363 535.848H493.86C487.976 535.848 483.041 530.921 483.041 525.047V10.8003C483.041 4.92646 487.976 0 493.86 0H860.363C866.247 0 871.182 4.92646 871.182 10.8003V525.047C871.182 531.111 866.437 535.848 860.363 535.848ZM493.86 0.568438C488.166 0.568438 483.421 5.11594 483.421 10.9898V525.237C483.421 530.921 487.976 535.658 493.86 535.658H860.363C866.057 535.658 870.802 531.111 870.802 525.237V10.8003C870.802 5.11594 866.247 0.378959 860.363 0.378959H493.86V0.568438Z" fill="white"/>
<path d="M410.158 276.449L411.107 251.627L395.733 246.701C395.164 238.174 393.645 229.837 391.558 221.69L404.464 212.216L395.733 188.91L379.6 190.236C375.804 182.657 371.249 175.457 366.314 168.825L374.665 154.993L357.583 136.803L343.159 144.193C336.705 138.698 329.872 133.771 322.66 129.413L324.938 113.497L302.162 103.265L291.723 115.392C283.751 112.739 275.59 110.844 267.049 109.707L263.253 94.1701L238.199 93.2227L233.264 108.57C224.723 109.328 216.372 110.655 208.211 112.739L198.531 99.8544L175.185 108.57L176.514 124.676C168.922 128.466 161.71 133.013 154.877 138.129L141.021 129.792L122.801 146.845L130.203 161.246C124.699 167.688 119.764 174.509 115.398 181.709L99.4554 179.246L89.0164 201.984L101.353 212.405C98.6962 220.363 96.7982 228.7 95.6594 237.037L79.906 241.016L78.957 265.838L94.3308 270.765C94.9002 279.291 96.4186 287.628 98.5064 295.776L85.6 305.25L94.3308 328.556L110.464 327.23C114.26 334.809 118.815 342.009 123.75 348.83L115.398 362.662L132.48 380.852L146.905 373.463C153.358 378.957 160.191 383.884 167.404 388.242L164.936 404.158L187.712 414.39L198.151 402.263C206.123 404.916 214.284 406.811 222.825 407.948L226.621 423.485L251.675 424.432L256.61 409.085C265.151 408.327 273.502 407 281.663 404.916L291.153 417.801L314.499 409.085L313.36 392.979C320.952 389.189 328.164 384.642 334.997 379.526L348.853 387.863L367.073 370.81L359.671 356.409C365.175 349.967 370.11 343.146 374.476 335.946L390.419 338.409L400.858 315.671L388.521 305.25C391.178 297.292 393.076 289.144 394.215 280.618L410.158 276.449ZM241.615 357.167C186.953 355.272 144.248 309.608 146.146 255.038C148.044 200.468 193.786 157.835 248.448 159.54C303.111 161.435 345.816 207.1 343.918 261.67C342.02 316.24 296.278 359.062 241.615 357.167Z" fill="white"/>
<path d="M837.018 194.215L843.281 188.341L840.814 183.415C842.712 181.141 844.42 178.867 845.938 176.404L851.443 177.162L855.049 169.393L850.873 165.793C851.822 162.951 852.392 160.109 852.961 157.267L858.465 155.94L858.655 147.414L853.341 145.709C853.151 142.866 852.581 139.835 852.012 136.992L856.377 133.771L853.341 125.624L847.836 126.003C846.508 123.35 844.989 120.887 843.281 118.613L846.128 113.876L840.244 107.623L835.31 110.086C833.032 108.192 830.754 106.486 828.287 104.97L829.046 99.4756L821.264 95.8755L817.658 100.044C814.811 99.0966 811.964 98.5282 809.117 98.1492L807.789 92.8438L799.248 92.4648L797.539 97.7703C794.692 97.9597 791.656 98.5282 788.998 99.0966L785.772 94.5491L777.61 97.5808L777.99 103.076C775.333 104.402 772.865 105.918 770.588 107.623L765.843 104.781L759.579 110.655L762.047 115.581C760.149 117.855 758.441 120.129 756.922 122.592L751.418 121.834L747.812 129.603L751.987 133.203C751.038 136.045 750.469 138.887 749.9 141.729L744.395 143.056L744.206 151.582L749.52 153.288C749.71 156.13 750.279 159.162 750.849 162.004L746.293 165.225L749.33 173.372L754.834 172.994C756.163 175.646 757.681 178.109 759.39 180.383L756.543 185.12L762.426 191.373L767.361 188.91C769.639 190.805 771.916 192.51 774.384 194.026L773.625 199.521L781.406 203.121L785.013 198.952C787.86 199.9 790.707 200.468 793.554 200.847L794.882 206.152L803.423 206.531L805.131 201.226C807.978 201.036 811.015 200.468 813.672 199.9L816.899 204.447L825.06 201.415L824.681 195.921C827.338 194.594 829.805 193.078 832.083 191.373L837.018 194.215ZM792.035 157.835C787.48 152.909 787.67 145.14 792.605 140.593C797.539 136.045 805.321 136.235 809.876 141.161C814.432 146.087 814.242 153.856 809.307 158.404C804.562 163.141 796.78 162.951 792.035 157.835Z" fill="white"/>
<path d="M607.497 408.312L587.486 394.556C585.543 387.194 582.823 380.219 579.326 373.631L584.377 353.481L555.235 322.287L534.641 325.969C528.229 322.094 521.429 318.994 514.241 316.475L501.807 295.55L459.064 294L445.27 313.956C437.888 315.894 430.893 318.606 424.288 322.094L404.082 317.056L372.803 346.119L376.494 366.462C372.608 372.856 369.5 379.637 366.974 386.806L345.991 399.206L344.437 441.831L364.643 455.587C366.586 462.95 369.306 469.925 372.608 476.512L367.557 496.662L396.699 527.856L417.099 524.175C423.511 528.05 430.31 531.15 437.499 533.668L449.933 554.593L492.675 556.143L506.47 536.187C513.852 534.25 520.847 531.537 527.646 528.05L547.658 533.087L578.937 504.025L575.246 483.681C579.132 477.287 582.24 470.506 584.766 463.337L605.748 450.937L607.497 408.312ZM474.413 473.025C447.796 472.056 427.202 449.969 427.979 423.619C428.951 397.075 451.099 376.537 477.521 377.312C504.138 378.281 524.732 400.369 523.955 426.719C523.178 453.069 501.03 473.8 474.413 473.025Z" fill="white"/>
<path d="M651.963 331.587L618.938 330.45C617.609 330.45 616.281 329.693 615.711 328.556L606.791 313.587C602.046 311.881 597.491 309.797 592.935 307.145L578.7 309.797C577.372 309.987 576.043 309.608 575.094 308.66L552.698 284.596C551.749 283.649 551.369 282.133 551.749 280.807L555.355 266.785C553.267 262.427 551.369 257.501 549.851 252.574L535.616 242.722C534.477 241.964 533.907 240.637 533.907 239.311L535.046 206.531C535.046 205.205 535.805 203.878 536.944 203.31L551.938 194.404C553.647 189.478 555.924 184.93 558.392 180.762L555.734 166.551C555.545 165.224 555.924 163.898 556.873 162.951L580.978 140.592C581.927 139.645 583.445 139.266 584.774 139.645L598.819 143.245C603.374 140.971 608.119 139.266 612.864 137.75L622.734 123.539C623.493 122.402 624.822 121.644 626.15 121.834L658.986 122.971C660.314 122.971 661.643 123.728 662.212 124.865L671.133 139.834C675.878 141.54 680.433 143.624 684.799 146.277L699.223 143.624C700.552 143.434 701.881 143.813 702.83 144.761L725.416 168.635C726.365 169.582 726.744 171.098 726.365 172.425L722.759 186.446C725.036 190.994 726.744 195.731 728.263 200.468L742.498 210.321C743.637 211.078 744.206 212.405 744.206 213.731L743.067 246.511C743.067 247.837 742.308 249.164 741.169 249.732L726.175 258.638C724.467 263.564 722.189 268.112 719.722 272.28L722.379 286.491C722.569 287.818 722.189 289.144 721.24 290.091L697.136 312.45C696.187 313.397 694.668 313.776 693.34 313.397L679.294 309.797C674.739 312.071 669.804 313.776 665.059 315.292L655.19 329.503C654.62 331.019 653.292 331.587 651.963 331.587ZM621.595 322.492L650.065 323.44L659.555 309.797C660.125 309.039 660.884 308.471 661.833 308.281C667.147 306.955 672.272 304.871 677.396 302.408C678.156 302.029 679.294 301.839 680.243 302.029L693.529 305.439L714.407 286.112L711.94 272.47C711.75 271.522 711.94 270.575 712.509 269.628C715.167 265.08 717.634 260.154 719.532 254.848C719.912 253.901 720.481 253.143 721.24 252.574L735.475 244.048L736.424 215.626L722.759 206.152C721.999 205.584 721.43 205.015 721.24 204.068C721.24 203.878 721.24 203.878 721.24 203.689C719.722 198.383 717.824 193.267 715.356 188.341C714.977 187.394 714.787 186.446 714.977 185.499L718.393 172.046L698.844 151.203L685.178 153.666C684.229 153.856 683.28 153.666 682.331 153.098C677.586 150.256 672.651 147.982 667.527 146.087C667.147 145.898 666.957 145.898 666.768 145.708C666.198 145.329 665.819 144.95 665.439 144.382L656.708 130.739L628.238 129.792L618.748 143.434C618.179 144.192 617.42 144.761 616.471 145.14C611.156 146.655 606.032 148.55 601.097 151.014C600.148 151.392 599.199 151.582 598.25 151.392L584.774 147.982L563.896 167.498L566.363 181.141C566.553 182.088 566.363 182.846 565.984 183.604C565.984 183.793 565.794 183.793 565.794 183.983C562.947 188.53 560.669 193.646 558.771 198.952C558.392 199.899 557.822 200.657 557.063 201.036L542.828 209.563L541.879 237.985L555.545 247.459C556.304 248.027 556.873 248.785 557.063 249.732C558.582 255.227 560.48 260.343 562.947 265.08C563.137 265.27 563.137 265.648 563.326 266.027C563.516 266.596 563.516 267.354 563.326 267.922L559.91 281.375L579.459 302.218L592.935 299.755C593.884 299.565 594.833 299.755 595.782 300.323C600.527 303.165 605.652 305.439 610.777 307.334C611.726 307.713 612.485 308.281 613.054 309.039L621.595 322.492ZM639.057 286.681C638.298 286.681 637.728 286.681 636.969 286.681C603.944 285.544 577.751 257.69 578.89 224.721C580.029 191.752 607.93 165.793 640.955 166.74C673.98 167.877 700.172 195.731 699.034 228.7C698.464 244.616 691.631 259.585 680.054 270.385C668.855 280.996 654.431 286.681 639.057 286.681ZM639.057 174.698C611.156 174.698 588 196.868 587.052 224.91C586.103 253.522 608.689 277.586 637.349 278.723C651.204 279.102 664.49 274.175 674.739 264.701C684.988 255.227 690.682 242.343 691.252 228.511C692.201 199.899 669.615 175.835 640.955 174.698C640.196 174.698 639.626 174.698 639.057 174.698Z" fill="white"/>
<path d="M727.693 95.4973L714.217 91.7077L710.421 78.2546L715.736 72.9492L721.43 84.5075L733.008 90.1918L727.693 95.4973Z" fill="#E0E0E0"/>
<path d="M728.642 86.403C731.11 83.9398 731.11 79.9607 728.642 77.4975C726.175 75.0343 722.189 75.0343 719.722 77.4975L726.554 67.2656L735.665 71.8131L737.563 81.2871L728.642 86.403Z" fill="#E0E0E0"/>
<path d="M714.787 73.8979L724.846 63.8555L738.512 67.4556L742.118 81.0981L732.059 91.1405L718.393 87.5404L714.787 73.8979ZM732.818 82.0455C735.285 79.5822 735.285 75.6032 732.818 73.1399C730.35 70.6767 726.365 70.6767 723.897 73.1399C721.43 75.6032 721.43 79.5822 723.897 82.0455C726.365 84.5087 730.35 84.5087 732.818 82.0455Z" fill="#F0F0F0"/>
<path d="M171.2 458.162L178.602 456.078L180.5 448.877L177.653 446.035L174.616 452.288L168.353 455.13L171.2 458.162Z" fill="#E0E0E0"/>
<path d="M170.82 453.236C169.491 451.909 169.491 449.825 170.82 448.499C172.149 447.172 174.236 447.172 175.565 448.499L171.959 443.004L167.024 445.467L165.885 450.583L170.82 453.236Z" fill="#E0E0E0"/>
<path d="M178.222 446.602L172.908 441.297L165.695 443.192L163.797 450.392L169.112 455.697L176.324 453.803L178.222 446.602ZM168.542 450.96C167.214 449.634 167.214 447.55 168.542 446.223C169.871 444.897 171.959 444.897 173.287 446.223C174.616 447.55 174.616 449.634 173.287 450.96C171.959 452.287 169.871 452.287 168.542 450.96Z" fill="#F0F0F0"/>
<path d="M145.007 58.1689L151.081 64.2322C152.599 65.7481 155.256 65.7481 156.775 64.2322C158.293 62.7164 158.293 60.0637 156.775 58.5479L150.701 52.4845C149.183 50.9687 146.526 50.9687 145.007 52.4845C143.299 54.0004 143.299 56.6531 145.007 58.1689Z" fill="#F0F0F0"/>
<path d="M140.642 43.2012C145.387 41.4959 150.322 43.7696 152.03 48.1276C153.548 52.4857 151.081 57.4121 146.336 59.1174C141.591 60.8228 136.656 58.549 134.948 54.191C133.429 49.6435 135.897 44.717 140.642 43.2012Z" fill="#E0E0E0"/>
<path d="M134.084 53.0504L134.982 55.5469L153.023 49.0784L152.125 46.582L134.084 53.0504Z" fill="#F0F0F0"/>
<path d="M341.45 322.664L311.841 327.969L285.08 181.691L227.95 192.113L134.948 356.96L145.007 411.34L264.202 389.74L272.363 434.267L329.493 423.846L321.331 379.318L350.94 374.013L341.45 322.664ZM191.888 349.759L241.236 263.357L254.901 338.201L191.888 349.759Z" fill="#004ADA"/>
<path d="M448.303 439.893L433.792 419.541L434.617 418.91L449.758 438.552L448.303 439.893Z" fill="#004ADA"/>
<path d="M545.835 441.746H405.004V477.559H545.835V441.746Z" fill="#004ADA"/>
<path d="M543.475 441.746H408.19V476.809H543.475V441.746Z" fill="#004ADA"/>
<path d="M546.11 442.653L405.555 441.746L409.959 427.152H541.076L546.11 442.653Z" fill="#004ADA"/>
<path d="M521.452 399.309H428.915V435.121H521.452V399.309Z" fill="#004ADA"/>
<path d="M521.452 399.148H428.915V435.119H521.452V399.148Z" fill="#004ADA"/>
<path opacity="0.4" d="M521.452 418.909L428.915 419.934V399.148H521.452V418.909Z" fill="#004ADA"/>
<path opacity="0.3" d="M521.452 399.148H428.915V402.225H521.452V399.148Z" fill="#004ADA"/>
<path d="M400.128 403.65H550.79C567.602 403.65 581.246 389.949 581.246 373.119V159.031C581.246 142.202 567.602 128.5 550.79 128.5H400.128C383.315 128.5 369.672 142.202 369.672 159.031V373.119C369.672 389.949 383.315 403.65 400.128 403.65ZM379.733 159.031C379.733 147.739 388.9 138.565 400.128 138.565H550.79C562.017 138.565 571.184 147.739 571.184 159.031V373.119C571.184 384.411 562.017 393.585 550.79 393.585H400.128C388.9 393.585 379.733 384.411 379.733 373.119V159.031Z" fill="#004ADA" stroke="#004ADA" stroke-width="9"/>
<path d="M551.616 389.369H399.302C390.846 389.369 383.925 382.466 383.925 373.947V158.203C383.925 149.723 390.807 142.781 399.302 142.781H551.616C560.071 142.781 566.993 149.683 566.993 158.203V373.947C566.993 382.466 560.11 389.369 551.616 389.369ZM399.302 143.846C391.436 143.846 385.026 150.315 385.026 158.203V373.947C385.026 381.875 391.436 388.304 399.341 388.304H551.655C559.56 388.304 565.97 381.875 565.97 373.947V158.203C565.97 150.275 559.56 143.846 551.655 143.846H399.302Z" fill="#004ADA"/>
<path d="M545.52 442.536L540.486 427.628L540.997 426.957L546.542 441.826L545.52 442.536Z" fill="#004ADA"/>
<path d="M540.997 426.957H521.452V428.022H540.997V426.957Z" fill="#004ADA"/>
<path d="M521.963 399.148H520.901V434.725H521.963V399.148Z" fill="#004ADA"/>
<path d="M521.452 434.371H428.954V435.436H521.452V434.371Z" fill="#004ADA"/>
<path d="M546 268.618L541.979 265.796C541.577 264.318 541.041 262.975 540.371 261.631L541.443 257.6L535.68 251.419L531.66 252.225C530.454 251.419 528.979 250.882 527.639 250.344L525.093 246.179L516.649 245.91L513.835 249.941C512.361 250.344 511.021 250.882 509.68 251.554L505.66 250.479L499.495 256.256L500.299 260.287C499.495 261.631 498.959 262.975 498.423 264.318L494.268 266.737L494 275.202L498.021 278.024C498.423 279.502 498.959 280.846 499.629 282.189L498.557 286.22L504.32 292.401L508.34 291.595C509.68 292.401 511.021 292.939 512.361 293.476L514.773 297.641L523.216 297.91L526.031 293.879C527.505 293.476 528.845 292.939 530.186 292.267L534.206 293.342L540.371 287.564L539.567 283.533C540.371 282.189 540.907 280.846 541.443 279.502L545.598 276.949L546 268.618ZM519.598 281.517C514.371 281.383 510.217 276.949 510.351 271.574C510.485 266.334 514.907 262.169 520.268 262.303C525.495 262.437 529.649 266.871 529.515 272.246C529.247 277.621 524.825 281.786 519.598 281.517Z" fill="#F5F5F5"/>
<path d="M809.563 339.717L779.765 335.738L799.504 188.323L741.995 180.555L602.492 308.643L595.09 363.402L715.233 379.508L709.159 424.415L766.669 432.183L772.742 387.277L802.541 391.256L809.563 339.717ZM658.862 319.443L732.505 252.557L722.445 327.97L658.862 319.443Z" fill="#004ADA"/>
<path d="M749.397 430.856C748.638 430.666 748.448 430.287 748.448 429.719L792.862 187.375C792.862 186.807 793.431 186.617 794.001 186.617C794.57 186.617 794.95 187.186 794.76 187.754L750.536 430.098C750.346 430.477 749.967 430.856 749.397 430.856Z" fill="#222222"/>
<path d="M788.686 191.356C788.686 192.303 787.927 192.872 787.168 192.872C786.408 192.872 785.649 192.114 785.649 191.356C785.649 190.598 786.408 189.84 787.168 189.84C788.117 189.84 788.686 190.598 788.686 191.356Z" fill="#222222"/>
<path d="M782.423 224.137C782.423 225.084 781.663 225.653 780.904 225.653C779.955 225.653 779.386 224.895 779.386 224.137C779.386 223.19 780.145 222.621 780.904 222.621C781.853 222.621 782.423 223.379 782.423 224.137Z" fill="#222222"/>
<path d="M776.159 256.914C776.159 257.862 775.4 258.43 774.641 258.43C773.692 258.43 773.122 257.672 773.122 256.914C773.122 255.967 773.881 255.398 774.641 255.398C775.4 255.398 776.159 256.156 776.159 256.914Z" fill="#222222"/>
<path d="M763.632 291.024C763.632 291.971 762.873 292.539 762.114 292.539C761.355 292.539 760.595 291.782 760.595 291.024C760.595 290.076 761.355 289.508 762.114 289.508C762.873 289.508 763.632 290.266 763.632 291.024Z" fill="#222222"/>
<path d="M763.443 322.477C763.443 323.424 762.683 323.993 761.924 323.993C761.165 323.993 760.406 323.235 760.406 322.477C760.406 321.719 761.165 320.961 761.924 320.961C762.683 320.961 763.443 321.719 763.443 322.477Z" fill="#222222"/>
<path d="M757.179 355.254C757.179 356.201 756.42 356.77 755.661 356.77C754.902 356.77 754.142 356.012 754.142 355.254C754.142 354.307 754.902 353.738 755.661 353.738C756.42 353.738 757.179 354.496 757.179 355.254Z" fill="#222222"/>
<path d="M750.726 388.035C750.726 388.983 749.967 389.551 749.208 389.551C748.259 389.551 747.689 388.793 747.689 388.035C747.689 387.088 748.448 386.52 749.208 386.52C750.157 386.52 750.916 387.277 750.726 388.035Z" fill="#222222"/>
<path d="M744.463 420.817C744.463 421.764 743.703 422.332 742.944 422.332C741.995 422.332 741.426 421.575 741.426 420.817C741.426 420.059 742.185 419.301 742.944 419.301C743.893 419.301 744.463 420.059 744.463 420.817Z" fill="#222222"/>
<path d="M762.114 291.97C761.734 291.97 761.355 291.591 761.165 291.212C760.975 290.643 761.355 290.264 761.924 290.075L766.669 289.127C767.238 288.938 767.618 289.317 767.808 289.885C767.998 290.454 767.618 290.833 767.049 291.022L762.304 291.97H762.114Z" fill="#222222"/>
<path d="M777.867 274.535C777.867 274.535 773.692 285.525 772.173 292.346C770.655 298.978 770.655 313.947 770.655 313.947" fill="#222222"/>
<path d="M770.655 314.895C770.086 314.895 769.706 314.516 769.706 313.948C769.706 313.379 769.896 298.789 771.224 292.158C772.743 285.526 776.729 274.725 776.918 274.347C777.108 273.778 777.678 273.589 778.057 273.778C778.627 273.968 778.816 274.536 778.627 274.915C778.627 275.104 774.451 285.905 772.933 292.537C771.604 298.979 771.414 313.758 771.414 313.948C771.604 314.516 771.224 314.895 770.655 314.895Z" fill="#222222"/>
<path d="M500.252 209.943L500.502 202.634L496.01 201.168C495.817 198.68 495.412 196.211 494.814 193.839L498.613 191.043L496.029 184.177L491.324 184.563C490.206 182.345 488.895 180.243 487.41 178.256L489.84 174.187L484.827 168.845L480.623 171.005C478.734 169.404 476.728 167.938 474.607 166.646L475.282 161.979L468.611 158.951L465.564 162.538C463.231 161.786 460.821 161.227 458.334 160.841L457.196 156.27L449.869 156.02L448.423 160.513C445.916 160.725 443.468 161.111 441.096 161.709L438.281 157.929L431.417 160.494L431.802 165.2C429.585 166.338 427.483 167.649 425.497 169.134L421.448 166.704L416.088 171.699L418.247 175.923C416.647 177.793 415.182 179.818 413.909 181.94L409.243 181.246L406.196 187.919L409.802 190.966C409.05 193.299 408.452 195.729 408.105 198.198L403.516 199.355L403.266 206.664L407.778 208.13C407.97 210.637 408.375 213.087 408.973 215.459L405.174 218.255L407.758 225.121L412.463 224.735C413.581 226.953 414.892 229.056 416.377 231.042L413.948 235.111L418.961 240.454L423.164 238.293C425.034 239.894 427.059 241.36 429.18 242.652L428.486 247.319L435.157 250.347L438.223 246.76C440.556 247.512 442.966 248.071 445.454 248.457L446.591 253.028L453.918 253.279L455.364 248.785C457.871 248.573 460.32 248.187 462.691 247.589L465.487 251.369L472.351 248.804L471.985 244.099C474.202 242.961 476.304 241.649 478.29 240.164L482.339 242.594L487.699 237.599L485.54 233.376C487.14 231.505 488.606 229.48 489.878 227.358L494.544 228.053L497.591 221.38L493.985 218.333C494.737 215.999 495.316 213.588 495.682 211.1L500.252 209.943ZM450.91 233.607C434.907 233.067 422.393 219.644 422.933 203.637C423.473 187.61 436.893 175.093 452.896 175.633C468.9 176.173 481.414 189.596 480.874 205.623C480.334 221.63 466.914 234.147 450.91 233.607Z" fill="#004BD0"/>
<path d="M548.807 341.582L549 335.946L545.535 334.816C545.386 332.897 545.074 330.993 544.613 329.164L547.543 327.008L545.55 321.713L541.921 322.011C541.058 320.3 540.047 318.679 538.902 317.148L540.776 314.01L536.909 309.89L533.667 311.556C532.209 310.321 530.663 309.191 529.027 308.195L529.547 304.595L524.402 302.261L522.052 305.027C520.252 304.447 518.393 304.015 516.475 303.718L515.597 300.193L509.946 300L508.83 303.465C506.897 303.629 505.008 303.926 503.179 304.387L501.008 301.472L495.713 303.45L496.011 307.079C494.3 307.957 492.679 308.968 491.148 310.113L488.024 308.239L483.89 312.091L485.556 315.348C484.321 316.791 483.191 318.352 482.209 319.988L478.61 319.453L476.261 324.598L479.042 326.948C478.462 328.748 478.001 330.622 477.733 332.525L474.193 333.418L474 339.054L477.48 340.184C477.629 342.118 477.941 344.007 478.402 345.836L475.472 347.992L477.465 353.287L481.094 352.989C481.957 354.7 482.968 356.321 484.113 357.852L482.239 360.99L486.106 365.11L489.348 363.444C490.791 364.679 492.352 365.809 493.988 366.805L493.453 370.405L498.598 372.739L500.963 369.973C502.763 370.553 504.622 370.985 506.54 371.282L507.418 374.807L513.069 375L514.184 371.535C516.118 371.371 518.007 371.074 519.836 370.613L521.992 373.528L527.287 371.55L527.004 367.921C528.714 367.043 530.336 366.032 531.867 364.887L534.99 366.761L539.125 362.909L537.459 359.652C538.694 358.209 539.824 356.648 540.805 355.012L544.405 355.547L546.754 350.402L543.973 348.052C544.553 346.252 544.999 344.393 545.282 342.475L548.807 341.582ZM510.749 359.83C498.405 359.414 488.753 349.063 489.17 336.719C489.586 324.361 499.937 314.709 512.281 315.125C524.625 315.541 534.277 325.892 533.86 338.251C533.444 350.595 523.093 360.247 510.749 359.83Z" fill="#004BD0"/>
<path d="M627.923 138.633L628 136.378L626.614 135.926C626.554 135.159 626.43 134.397 626.245 133.666L627.417 132.803L626.62 130.685L625.168 130.804C624.823 130.12 624.419 129.472 623.961 128.859L624.71 127.604L623.164 125.956L621.867 126.622C621.284 126.128 620.665 125.676 620.011 125.278L620.219 123.838L618.161 122.904L617.221 124.011C616.501 123.779 615.757 123.606 614.99 123.487L614.639 122.077L612.378 122L611.932 123.386C611.159 123.452 610.403 123.57 609.672 123.755L608.803 122.589L606.685 123.38L606.804 124.832C606.12 125.183 605.472 125.587 604.859 126.045L603.61 125.296L601.956 126.836L602.622 128.139C602.128 128.716 601.676 129.341 601.284 129.995L599.844 129.781L598.904 131.839L600.017 132.779C599.785 133.499 599.6 134.249 599.493 135.01L598.077 135.367L598 137.622L599.392 138.074C599.452 138.847 599.576 139.603 599.761 140.334L598.589 141.197L599.386 143.315L600.838 143.196C601.183 143.88 601.587 144.528 602.045 145.141L601.296 146.396L602.842 148.044L604.139 147.378C604.716 147.872 605.341 148.324 605.995 148.722L605.781 150.162L607.839 151.096L608.785 149.989C609.505 150.221 610.249 150.394 611.016 150.513L611.367 151.923L613.628 152L614.074 150.614C614.847 150.548 615.603 150.43 616.334 150.245L617.197 151.411L619.315 150.62L619.202 149.168C619.886 148.817 620.534 148.413 621.147 147.955L622.396 148.704L624.05 147.164L623.384 145.861C623.877 145.284 624.33 144.659 624.722 144.005L626.162 144.219L627.102 142.161L625.989 141.221C626.221 140.501 626.4 139.757 626.513 138.99L627.923 138.633ZM612.7 145.932C607.762 145.766 603.901 141.625 604.068 136.688C604.234 131.744 608.375 127.883 613.312 128.05C618.25 128.217 622.111 132.357 621.944 137.3C621.778 142.238 617.637 146.099 612.7 145.932Z" fill="#004BD0"/>
<path opacity="0.3" d="M463.986 295.965L459.78 293.057C459.371 291.533 458.792 290.051 458.086 288.682L459.159 284.448L453.062 277.914L448.772 278.704C447.445 277.914 446.019 277.236 444.523 276.714L441.912 272.31L432.979 272L430.071 276.206C430.071 276.206 430.071 276.206 430.057 276.206C428.533 276.615 427.065 277.194 425.682 277.899L421.448 276.827L414.914 282.924L415.704 287.214C414.899 288.555 414.236 289.995 413.714 291.477L409.31 294.088L409 303.021L413.206 305.929C413.615 307.467 414.18 308.935 414.899 310.332L413.827 314.552L419.924 321.086L424.186 320.31C425.527 321.101 426.966 321.778 428.477 322.3L431.088 326.69L440.021 327L442.929 322.794C444.467 322.385 445.949 321.806 447.346 321.101L451.552 322.173L458.086 316.076L457.296 311.786C458.101 310.445 458.764 309.005 459.286 307.509L463.69 304.898L464 295.965H463.986ZM436.14 309.556C430.579 309.372 426.247 304.701 426.43 299.168C426.614 293.608 431.271 289.275 436.818 289.458C442.378 289.642 446.711 294.299 446.528 299.846C446.344 305.378 441.687 309.739 436.14 309.556Z" fill="#004BD0"/>
<defs>
<linearGradient id="paint0_linear_3798_8633" x1="368.822" y1="261.724" x2="509.148" y2="267.136" gradientUnits="userSpaceOnUse">
<stop stop-color="white" stop-opacity="0"/>
<stop offset="0.796875" stop-color="white" stop-opacity="0.35"/>
<stop offset="1" stop-color="white" stop-opacity="0.4"/>
</linearGradient>
</defs>
</svg>
