<svg width="350" height="261" viewBox="0 0 350 261" fill="none" xmlns="http://www.w3.org/2000/svg">
<mask id="mask0_3882_8311" style="mask-type:luminance" maskUnits="userSpaceOnUse" x="0" y="0" width="350" height="261">
<path d="M350 0H0V260.407H350V0Z" fill="white"/>
</mask>
<g mask="url(#mask0_3882_8311)">
<path d="M350 228.844H0V229.018H350V228.844Z" fill="#EBEBEB"/>
<path d="M59.9057 240.094H36.7217V240.268H59.9057V240.094Z" fill="#EBEBEB"/>
<path d="M125.881 241.992H94.7314V242.167H125.881V241.992Z" fill="#EBEBEB"/>
<path d="M109.9 233.602H60.6064V233.776H109.9V233.602Z" fill="#EBEBEB"/>
<path d="M314.93 234.781H306.05V234.956H314.93V234.781Z" fill="#EBEBEB"/>
<path d="M299.81 234.781H274.03V234.956H299.81V234.781Z" fill="#EBEBEB"/>
<path d="M215.83 237.727H194.047V237.901H215.83V237.727Z" fill="#EBEBEB"/>
<path d="M165.907 197.676H30.7372C28.5322 197.676 26.7402 195.887 26.7402 193.685V3.99103C26.7402 1.78903 28.5322 0 30.7372 0H165.907C168.112 0 169.904 1.78903 169.904 3.99103V193.685C169.904 195.887 168.112 197.676 165.907 197.676ZM30.7372 0.174988C28.6302 0.174988 26.9152 1.88703 26.9152 3.99103V193.685C26.9152 195.789 28.6302 197.501 30.7372 197.501H165.907C168.014 197.501 169.729 195.789 169.729 193.685V3.99103C169.729 1.88703 168.014 0.174988 165.907 0.174988H30.7372Z" fill="#EBEBEB"/>
<path d="M317.32 197.676H182.147C179.942 197.676 178.15 195.887 178.15 193.685V3.99103C178.15 1.78903 179.942 0 182.147 0H317.32C319.52 0 321.31 1.78903 321.31 3.99103V193.685C321.31 195.887 319.52 197.676 317.32 197.676ZM182.147 0.174988C180.04 0.174988 178.325 1.88703 178.325 3.99103V193.685C178.325 195.789 180.04 197.501 182.147 197.501H317.32C319.42 197.501 321.14 195.789 321.14 193.685V3.99103C321.14 1.88703 319.42 0.174988 317.32 0.174988H182.147Z" fill="#EBEBEB"/>
<path d="M222.29 159.378V9.60938H37.877V159.378H222.29Z" fill="#EBEBEB"/>
<path d="M223.41 159.386V9.61719H222.29V159.386H223.41Z" fill="#E0E0E0"/>
<path d="M46.9697 150.298H213.199V18.6855H46.9697V150.298Z" fill="#F5F5F5"/>
<path d="M122.682 150.307H144.998L107.821 18.6953H85.498L122.682 150.307Z" fill="white"/>
<path d="M104.762 150.307H117.67L80.4929 18.6953H67.585L104.762 150.307Z" fill="white"/>
<path d="M176.302 150.307H181.643L144.466 18.6953H139.118L176.302 150.307Z" fill="white"/>
<path d="M298.12 223.1H103.495C100.66 223.1 98.4197 220.787 98.5177 217.956L103.124 79.0336C103.215 76.2036 105.609 73.8906 108.444 73.8906H303.07C305.91 73.8906 308.15 76.2036 308.05 79.0336L303.44 217.956C303.35 220.787 300.96 223.1 298.12 223.1Z" fill="#E0E0E0"/>
<g opacity="0.6">
<path d="M296.53 223.1H101.906C99.0709 223.1 96.8309 220.787 96.9289 217.956L101.535 79.0336C101.626 76.2036 104.02 73.8906 106.855 73.8906H301.48C304.32 73.8906 306.56 76.2036 306.46 79.0336L301.85 217.956C301.76 220.787 299.37 223.1 296.53 223.1Z" fill="#FAFAFA"/>
</g>
<path d="M294.02 222.852H58.9679C56.5179 222.852 54.3969 224.277 53.4169 226.318C52.8569 227.492 53.7179 228.848 55.0409 228.848H297.96C299.29 228.848 300.15 227.492 299.58 226.318C298.6 224.277 296.47 222.852 294.03 222.852H294.02Z" fill="#E0E0E0"/>
<path opacity="0.6" d="M58.9677 222.852H246.54C248.99 222.852 251.11 224.277 252.09 226.318C252.65 227.492 251.79 228.848 250.47 228.848H55.0337C53.7037 228.848 52.8426 227.492 53.4096 226.318C54.3896 224.277 56.5177 222.852 58.9607 222.852H58.9677Z" fill="#FAFAFA"/>
<path opacity="0.3" d="M171.086 226.664H122.289C121.085 226.664 120.105 227.649 120.105 228.845H173.277C173.277 227.642 172.298 226.664 171.094 226.664H171.086Z" fill="#E0E0E0"/>
<path opacity="0.9" d="M101.569 212.932L105.839 84.0597C105.874 82.9557 106.805 82.0547 107.911 82.0547H299.86C300.96 82.0547 301.83 82.9557 301.8 84.0597L297.53 212.932C297.49 214.037 296.56 214.938 295.46 214.938H103.508C102.402 214.938 101.534 214.037 101.569 212.932Z" fill="white"/>
<path d="M106.659 207.453L110.572 89.3851C110.614 88.0291 111.727 86.9531 113.085 86.9531H294.2C295.62 86.9531 296.76 88.1271 296.72 89.5461L292.8 207.613C292.76 208.969 291.65 210.046 290.29 210.046H109.172C107.751 210.046 106.61 208.871 106.659 207.453Z" fill="#F0F0F0"/>
<path d="M254.41 214.946H286.23L249.56 82.0625H217.74L254.41 214.946Z" fill="white"/>
<path d="M234.14 214.946H245.59L208.922 82.0625H197.47L234.14 214.946Z" fill="white"/>
<path d="M168.986 214.946H180.438L143.765 82.0625H132.312L168.986 214.946Z" fill="white"/>
<path opacity="0.4" d="M205.526 158.119C205.498 158.951 204.798 159.629 203.965 159.629C203.132 159.629 202.481 158.951 202.502 158.119C202.53 157.287 203.23 156.609 204.063 156.609C204.896 156.609 205.547 157.287 205.526 158.119Z" fill="white"/>
<path d="M175 260.408C249.96 260.408 310.72 256.866 310.72 252.497C310.72 248.128 249.96 244.586 175 244.586C100.043 244.586 39.2773 248.128 39.2773 252.497C39.2773 256.866 100.043 260.408 175 260.408Z" fill="#F5F5F5"/>
<path opacity="0.5" d="M110.6 162.7C79.9536 132.103 79.9537 82.5109 110.593 51.9209C141.232 21.3319 190.911 21.3249 221.56 51.9209C252.19 82.5039 252.19 132.103 221.55 162.7C190.918 193.282 141.239 193.282 110.6 162.7Z" fill="white"/>
<path d="M279.78 206.611C279.45 205.06 278.83 203.816 277.99 202.782C276.18 200.853 274.25 199.036 272.34 197.198C270.42 195.366 268.49 193.556 266.52 191.795C264.56 190.006 262.56 188.266 260.55 186.533C256.51 183.087 252.36 179.747 248.07 176.553C246.11 175.106 244.12 173.68 242.1 172.297C243.04 169.732 242.49 166.748 240.43 164.686L237.48 161.744C236.95 161.213 236.36 160.786 235.73 160.458C262.05 126.15 259.5 76.8448 228.07 45.4508C193.837 11.2768 138.334 11.2768 104.104 45.4508C69.8739 79.6258 69.8879 135.033 104.111 169.208C135.555 200.601 184.94 203.152 219.3 176.86C219.63 177.489 220.07 178.076 220.59 178.608L223.54 181.55C225.6 183.611 228.59 184.157 231.16 183.22C232.55 185.24 233.97 187.225 235.42 189.181C238.62 193.466 241.98 197.603 245.42 201.642C247.16 203.648 248.9 205.654 250.69 207.597C252.46 209.568 254.27 211.503 256.1 213.411C257.95 215.312 259.76 217.241 261.69 219.051C262.72 219.89 263.98 220.519 265.53 220.833C267.11 221.134 268.9 221.211 271.37 220.61C275.27 219.652 278.53 216.612 279.54 212.447C280.15 209.973 280.07 208.184 279.77 206.618L279.78 206.611ZM108.318 164.987C76.4119 133.132 76.4118 81.4848 108.311 49.6378C140.217 17.7828 191.947 17.7828 223.85 49.6378C255.75 81.4848 255.75 133.125 223.85 164.987C191.947 196.834 140.224 196.834 108.325 164.987H108.318Z" fill="#407BFF"/>
<path opacity="0.2" d="M279.78 206.611C279.45 205.06 278.83 203.816 277.99 202.782C276.18 200.853 274.25 199.036 272.34 197.198C270.42 195.366 268.49 193.556 266.52 191.795C264.56 190.006 262.56 188.266 260.55 186.533C256.51 183.087 252.36 179.747 248.07 176.553C246.11 175.106 244.12 173.68 242.1 172.297C243.04 169.732 242.49 166.748 240.43 164.686L237.48 161.744C236.95 161.213 236.36 160.786 235.73 160.458C262.05 126.15 259.5 76.8448 228.07 45.4508C193.837 11.2768 138.334 11.2768 104.104 45.4508C69.8739 79.6258 69.8879 135.033 104.111 169.208C135.555 200.601 184.94 203.152 219.3 176.86C219.63 177.489 220.07 178.076 220.59 178.608L223.54 181.55C225.6 183.611 228.59 184.157 231.16 183.22C232.55 185.24 233.97 187.225 235.42 189.181C238.62 193.466 241.98 197.603 245.42 201.642C247.16 203.648 248.9 205.654 250.69 207.597C252.46 209.568 254.27 211.503 256.1 213.411C257.95 215.312 259.76 217.241 261.69 219.051C262.72 219.89 263.98 220.519 265.53 220.833C267.11 221.134 268.9 221.211 271.37 220.61C275.27 219.652 278.53 216.612 279.54 212.447C280.15 209.973 280.07 208.184 279.77 206.618L279.78 206.611ZM108.318 164.987C76.4119 133.132 76.4118 81.4848 108.311 49.6378C140.217 17.7828 191.947 17.7828 223.85 49.6378C255.75 81.4848 255.75 133.125 223.85 164.987C191.947 196.834 140.224 196.834 108.325 164.987H108.318Z" fill="black"/>
<path opacity="0.3" d="M231.16 183.205L242.1 172.281C242.1 172.281 239.2 180.598 231.16 183.205Z" fill="black"/>
<path d="M247.98 71.317C246.94 68.934 245.78 66.572 244.53 64.301L245.19 63.9439C246.44 66.2359 247.62 68.613 248.67 71.017L247.98 71.317ZM241.5 59.1849C238.03 53.7549 233.95 48.6879 229.38 44.1169L229.91 43.5859C234.52 48.1919 238.64 53.3069 242.13 58.7789L241.5 59.1779V59.1849Z" fill="#407BFF"/>
<path opacity="0.2" d="M247.98 71.317C246.94 68.934 245.78 66.572 244.53 64.301L245.19 63.9439C246.44 66.2359 247.62 68.613 248.67 71.017L247.98 71.317ZM241.5 59.1849C238.03 53.7549 233.95 48.6879 229.38 44.1169L229.91 43.5859C234.52 48.1919 238.64 53.3069 242.13 58.7789L241.5 59.1779V59.1849Z" fill="black"/>
<path d="M144.96 96.1367C144.96 102.13 140.083 106.999 134.08 106.999C128.077 106.999 123.2 102.13 123.2 96.1367C123.2 90.1437 128.077 85.2656 134.08 85.2656C140.083 85.2656 144.96 90.1347 144.96 96.1367Z" fill="#3362CC"/>
<path d="M135.86 92.9199C135.86 95.7489 133.562 98.0429 130.72 98.0429C127.877 98.0429 125.589 95.7489 125.589 92.9199C125.589 90.0909 127.887 87.7969 130.72 87.7969C133.553 87.7969 135.86 90.0909 135.86 92.9199Z" fill="white"/>
<path d="M138.176 98.5348C138.176 99.5048 137.395 100.303 136.405 100.303C135.415 100.303 134.625 99.5048 134.625 98.5348C134.625 97.5648 135.415 96.7578 136.405 96.7578C137.395 96.7578 138.176 97.5468 138.176 98.5348Z" fill="white"/>
<path d="M207.795 96.1367C207.795 102.13 202.918 106.999 196.915 106.999C190.912 106.999 186.035 102.13 186.035 96.1367C186.035 90.1437 190.903 85.2656 196.915 85.2656C202.927 85.2656 207.795 90.1347 207.795 96.1367Z" fill="#3362CC"/>
<path d="M198.695 92.9199C198.695 95.7489 196.388 98.0429 193.555 98.0429C190.721 98.0429 188.424 95.7489 188.424 92.9199C188.424 90.0909 190.731 87.7969 193.555 87.7969C196.379 87.7969 198.695 90.0909 198.695 92.9199Z" fill="white"/>
<path d="M201.02 98.5348C201.02 99.5048 200.22 100.303 199.249 100.303C198.277 100.303 197.469 99.5048 197.469 98.5348C197.469 97.5648 198.25 96.7578 199.249 96.7578C200.248 96.7578 201.02 97.5468 201.02 98.5348Z" fill="white"/>
<path d="M189.932 132.782C189.932 132.782 180.524 121.82 163.132 121.82C147.884 121.82 138.167 132.782 138.167 132.782" stroke="#3362CC" stroke-width="5.18948" stroke-linecap="round" stroke-linejoin="round"/>
</g>
</svg>
