<svg width="140" height="91" viewBox="0 0 140 91" fill="none" xmlns="http://www.w3.org/2000/svg">
<path d="M1.49396 38.1287C1.36954 38.1287 1.26208 38.0326 1.25643 37.9081L0.000903127 22.8079C-0.0104079 22.6779 0.0857354 22.5591 0.221468 22.5478C0.345889 22.5365 0.470314 22.6326 0.481625 22.7683L1.73714 37.8686C1.74845 37.9986 1.65231 38.1174 1.51658 38.1287C1.51092 38.1287 1.50527 38.1287 1.49396 38.1287Z" fill="#407BFF"/>
<path d="M2.24089 47.1616C2.11647 47.1616 2.00901 47.0655 2.00336 46.941L1.62444 42.3714C1.61313 42.2413 1.70927 42.1225 1.845 42.1112C1.96942 42.0943 2.09384 42.1961 2.10516 42.3318L2.48407 46.9014C2.49538 47.0315 2.39924 47.1503 2.26351 47.1616C2.25785 47.1616 2.2522 47.1616 2.24089 47.1616Z" fill="#407BFF"/>
<path d="M129.472 90.1252H12.6967C9.71623 90.1252 7.07511 87.6877 6.82626 84.7072L0.248911 5.66017C6.82771e-05 2.67971 2.23399 0.242188 5.21445 0.242188H121.984C124.964 0.242188 127.605 2.67971 127.854 5.66017L134.431 84.7072C134.68 87.6877 132.446 90.1252 129.466 90.1252H129.472Z" fill="white"/>
<path d="M129.473 90.3298H12.6985C9.59932 90.3298 6.86206 87.8074 6.60756 84.7082L0.0302054 5.66117C-0.0942157 4.15114 0.380848 2.73161 1.37056 1.65706C2.35462 0.588173 3.72325 0 5.22196 0H121.991C125.09 0 127.828 2.52236 128.082 5.62723L134.66 84.6743C134.784 86.1843 134.309 87.6038 133.319 88.6784C132.335 89.7473 130.967 90.3354 129.468 90.3354L129.473 90.3298ZM5.22196 0.446786C3.84767 0.446786 2.5978 0.984058 1.69858 1.95681C0.799353 2.93521 0.363881 4.23598 0.476991 5.61592L7.05434 84.663C7.29188 87.536 9.82555 89.8717 12.6985 89.8717H129.468C130.842 89.8717 132.092 89.3344 132.991 88.3617C133.89 87.3833 134.326 86.0825 134.213 84.7025L127.635 5.65551C127.398 2.78251 124.864 0.446786 121.991 0.446786H5.22196Z" fill="#407BFF"/>
<path d="M121.99 0.242188H5.22055C2.2401 0.242188 0.00617182 2.67971 0.255014 5.66016H127.86C127.611 2.67971 124.97 0.242188 121.99 0.242188Z" fill="#407BFF"/>
<path d="M7.95304 2.99881C8.00394 3.64354 7.52888 4.1695 6.88415 4.1695C6.23942 4.1695 5.67387 3.6492 5.61731 2.99881C5.56076 2.34843 6.04148 1.82812 6.6862 1.82812C7.33093 1.82812 7.89649 2.34843 7.95304 2.99881Z" fill="white"/>
<path d="M12.7035 2.99881C12.7544 3.64354 12.2794 4.1695 11.6346 4.1695C10.9899 4.1695 10.4244 3.6492 10.3678 2.99881C10.3112 2.34843 10.792 1.82812 11.4367 1.82812C12.0814 1.82812 12.647 2.34843 12.7035 2.99881Z" fill="white"/>
<path d="M17.4543 2.99881C17.5052 3.64354 17.0301 4.1695 16.3854 4.1695C15.7406 4.1695 15.1751 3.6492 15.1185 2.99881C15.062 2.35409 15.5427 1.82812 16.1874 1.82812C16.8322 1.82812 17.3977 2.34843 17.4543 2.99881Z" fill="white"/>
<path d="M119.339 79.712H21.1083C18.7386 79.712 16.6404 77.7721 16.4425 75.4081L11.8559 20.2726C11.6579 17.9029 13.4338 15.9688 15.8034 15.9688H114.028C116.398 15.9688 118.496 17.9086 118.694 20.2726L123.281 75.4081C123.479 77.7778 121.703 79.712 119.333 79.712H119.339Z" fill="#F0F0F0"/>
<path opacity="0.1" d="M88.9568 25.6033L58.5246 62.2397C54.3508 67.2675 56.9919 74.925 63.3826 76.3106L112.738 86.9883C119.553 88.4643 125.248 81.723 122.658 75.2474L103.735 27.9334C101.286 21.8085 93.1758 20.5303 88.9568 25.6033Z" fill="#263238"/>
<path opacity="0.1" d="M21.2249 30.7731L10.6265 59.3165C9.21262 63.1226 12.2723 67.0985 16.3159 66.7026L47.2685 63.6656C51.6063 63.2414 53.7497 58.1741 51.0294 54.7638L30.6753 29.2575C28.0059 25.9151 22.7123 26.7634 21.2249 30.7731Z" fill="#263238"/>
<path d="M99.4521 16.3611L71.0049 57.6689C67.1309 63.2962 70.5638 71.0272 77.3334 71.9321L129.624 78.8941C136.88 79.8612 142.281 72.3337 139.035 65.7676L115.191 17.5035C112.098 11.2429 103.411 10.6151 99.4521 16.3667V16.3611Z" fill="#407BFF"/>
<path d="M78.5769 68.1913C76.6766 67.9368 75.0196 66.7378 74.1543 64.9846C73.289 63.2314 73.3851 61.2859 74.4201 59.7815L102.941 18.3719C103.976 16.8675 105.729 16.1267 107.629 16.3755C109.529 16.63 111.187 17.829 112.052 19.5822L135.958 67.9707C136.823 69.7239 136.727 71.6694 135.692 73.1738C134.657 74.6781 132.904 75.419 131.003 75.1702L78.5769 68.1913Z" fill="white"/>
<path d="M105.204 31.0559L108.535 31.497C110.679 31.7798 112.325 33.7309 112.217 35.8461L111.997 40.1895C111.991 40.3479 111.968 40.5062 111.94 40.6646L109.57 53.7571C109.231 55.646 107.506 56.862 105.549 56.6018C103.587 56.3416 102.009 54.6733 101.873 52.7165L100.912 39.1885C100.9 39.0301 100.9 38.8774 100.912 38.7191L101.138 34.37C101.245 32.2492 103.072 30.7674 105.216 31.0502L105.204 31.0559ZM104.939 60.2157L105.849 60.3344C107.766 60.5889 109.237 62.3308 109.141 64.2254C109.044 66.12 107.41 67.4491 105.493 67.1946L104.582 67.0758C102.665 66.8213 101.195 65.0794 101.291 63.1848C101.387 61.2902 103.021 59.9612 104.939 60.2157Z" fill="#407BFF"/>
<path d="M32.1641 22.7402L24.3539 52.358C23.3189 56.2773 26.7405 59.9308 30.722 59.156L61.0185 53.246C65.2771 52.4146 66.9398 47.2115 63.9537 44.0671L41.4674 20.3592C38.504 17.2317 33.2613 18.5777 32.1585 22.7402H32.1641Z" fill="#407BFF"/>
<path d="M30.6656 56.7587C29.5628 56.9736 28.4204 56.589 27.6003 55.7237C26.7803 54.8641 26.4636 53.7047 26.7464 52.6245L34.5792 22.9274C34.862 21.8529 35.6934 21.0781 36.7905 20.8632C37.8934 20.6483 39.0358 21.0328 39.8558 21.8981L62.3987 45.6682C63.2187 46.5279 63.5354 47.6873 63.2527 48.7675C62.9699 49.842 62.1385 50.6168 61.0414 50.8317L30.6656 56.7587Z" fill="white"/>
<path d="M38.2652 29.8901L40.1938 29.5112C41.4323 29.268 42.7218 30.0938 43.0668 31.3549L43.7794 33.9395C43.8076 34.0356 43.8246 34.1318 43.8416 34.2279L45.0462 42.3492C45.2215 43.5199 44.4976 44.5605 43.3665 44.7868C42.2298 45.0073 41.0364 44.3343 40.584 43.2145L37.4509 35.4778C37.4169 35.3873 37.383 35.2968 37.3604 35.2063L36.6478 32.6161C36.3028 31.3549 37.0267 30.139 38.2652 29.8958V29.8901ZM43.7228 47.015L44.2488 46.9132C45.3572 46.6983 46.511 47.4335 46.822 48.5646C47.1331 49.6901 46.4827 50.7816 45.3742 50.9965L44.8482 51.0983C43.7398 51.3132 42.5861 50.578 42.275 49.4469C41.9639 48.3214 42.6143 47.2299 43.7228 47.015Z" fill="#407BFF"/>
</svg>
