<svg width="96" height="127" viewBox="0 0 96 127" fill="none" xmlns="http://www.w3.org/2000/svg">
<g clip-path="url(#clip0_209_161)">
<path d="M0.124329 71.6604V95.5491H24.0664V88.1345H7.55439V71.6604H0.124329Z" fill="#D72028"/>
<path d="M48.0085 88.135H24.0664V95.5483H48.0085V88.135Z" fill="#C36485"/>
<path d="M71.9518 88.135H48.0089V95.5483H71.9518V88.135Z" fill="#9D2588"/>
<path d="M88.4631 71.6604V88.1345H71.9524V95.5491H95.8936V71.6604H88.4631Z" fill="#2B3174"/>
<path d="M7.55493 47.7749H0.124023V71.6619H7.55493V47.7749Z" fill="#E97C25"/>
<path d="M95.8943 47.7749H88.4625V71.6619H95.8943V47.7749Z" fill="#5CC4BA"/>
<path d="M7.55493 23.8867H0.124023V47.7741H7.55493V23.8867Z" fill="#FCCA13"/>
<path d="M95.8943 23.887H88.4625V47.7744H95.8943V23.887Z" fill="#08B391"/>
<path d="M0.124329 0V23.887H7.55439V7.41452H24.0664V0H0.124329Z" fill="#F6EA07"/>
<path d="M48.0085 0H24.0664V7.4141H48.0085V0Z" fill="#C6D82D"/>
<path d="M71.9518 0H48.0089V7.4141H71.9518V0Z" fill="#7BBB42"/>
<path d="M71.9524 0V7.41452H88.4631V23.887H95.8949V0H71.9524Z" fill="#288D44"/>
<mask id="mask0_209_161" style="mask-type:luminance" maskUnits="userSpaceOnUse" x="0" y="0" width="96" height="128">
<path d="M95.8943 0H0V127.143H95.8943V0Z" fill="white"/>
</mask>
<g mask="url(#mask0_209_161)">
<path fill-rule="evenodd" clip-rule="evenodd" d="M8.64846 116.747C9.03034 116.986 9.32088 117.309 9.60127 117.731L15.1312 126.756H11.2777L5.48934 116.917H3.32659V126.756H0V103.758H7.29008C11.8566 103.758 14.0625 105.574 14.0625 110.257C14.0625 113.85 12.1328 116.375 8.64846 116.747ZM20.5622 118.53V119.128C20.5622 121.906 21.7125 124.792 24.9139 124.792C26.7129 124.792 28.7983 124.375 30.3707 123.467L30.5864 123.341L31.4762 125.775L31.318 125.861C29.4767 126.849 26.9692 127.144 24.9135 127.144C19.2385 127.144 17.2035 123.467 17.2035 118.226C17.2035 113.192 19.3091 109.018 24.8796 109.018C31.0363 109.018 31.6859 113.137 31.6859 118.322V118.53H20.5622ZM48.6618 113.236V126.756H45.5294V114.064C45.5294 112.361 44.5427 111.207 42.7957 111.207C41.0888 111.207 39.8303 111.976 38.7675 113.237V126.757H35.6355V109.404H37.8193L38.1881 110.987C39.4907 109.655 41.2411 109.018 43.1192 109.018C44.8345 109.018 47.0434 109.426 47.9344 111.065C49.3034 109.76 51.1041 109.018 53.014 109.018C56.0327 109.018 58.5579 110.256 58.5579 113.677V126.757H55.4258V114.065C55.4258 112.355 54.4015 111.208 52.6583 111.208C50.9447 111.207 49.7255 111.975 48.6618 113.236ZM65.8019 118.53V119.128C65.8019 121.906 66.9526 124.792 70.1536 124.792C71.9526 124.792 74.038 124.375 75.6104 123.467L75.8243 123.341L76.7158 125.775L76.5564 125.86C74.7163 126.849 72.2085 127.144 70.1532 127.144C64.4773 127.144 62.4423 123.467 62.4423 118.226C62.4423 113.192 64.5484 109.018 70.1206 109.018C76.2752 109.018 76.9248 113.137 76.9248 118.322V118.53H65.8019ZM89.3075 114.937L95.6587 126.756H91.9473L87.4467 117.681L82.6298 126.756H79.2372L85.5986 115.577L79.2474 103.758H82.9588L87.4594 112.864L92.275 103.758H95.6676L89.3075 114.937ZM3.32659 106.27V114.405H6.80416C9.87362 114.405 10.5735 113.098 10.5735 110.257C10.5735 107.638 9.70996 106.27 6.86971 106.27H3.32659ZM28.5847 116.437C28.5691 113.706 28.1986 111.24 24.8801 111.24C21.825 111.24 20.6235 113.763 20.5643 116.437H28.5847ZM73.824 116.437C73.8075 113.706 73.4379 111.24 70.1206 111.24C67.0634 111.24 65.8619 113.763 65.8036 116.437H73.824Z" fill="#404041"/>
</g>
<mask id="mask1_209_161" style="mask-type:luminance" maskUnits="userSpaceOnUse" x="0" y="0" width="96" height="128">
<path d="M95.8943 0H0V127.143H95.8943V0Z" fill="white"/>
</mask>
<g mask="url(#mask1_209_161)">
<path fill-rule="evenodd" clip-rule="evenodd" d="M78.2083 34.9773C77.2496 43.9069 63.6387 48.3747 56.1253 49.3148L71.517 72.052L54.904 71.9811L38.8119 46.1811L40.9345 46.2807C47.5365 46.2406 65.4217 43.4466 64.5746 34.8317C63.6273 25.186 46.9774 26.5358 39.0196 27.7092C38.6098 28.1459 31.1971 71.2491 31.0503 72.052H17.9567L26.6622 25.5114L26.7586 25.2658C38.2431 23.0676 80.146 17.5281 78.2083 34.9773Z" fill="#404041"/>
</g>
</g>
<defs>
<clipPath id="clip0_209_161">
<rect width="96" height="127" fill="white"/>
</clipPath>
</defs>
</svg>
