<svg width="93" height="60" viewBox="0 0 93 60" fill="none" xmlns="http://www.w3.org/2000/svg">
<g opacity="0.15">
<path d="M18.0167 27.9386C18.7731 27.8965 19.5296 27.7705 20.244 27.5183C25.9595 25.8373 29.1955 19.8696 27.5565 14.1542C27.0522 12.4311 26.1276 10.9182 24.9929 9.69944C26.3377 7.93436 26.842 5.58093 26.1696 3.26952C26.0856 2.93331 25.9595 2.59711 25.7914 2.2609C26.842 1.7566 27.9767 1.33634 29.1114 1.00013C42.1393 -2.8242 55.7976 4.65636 59.622 17.6843C63.4463 30.7122 55.9658 44.3706 42.9378 48.1949C31.0446 51.683 18.647 45.7574 13.646 34.8308C16.4197 33.6961 18.1427 30.8803 18.0167 27.9386Z" fill="#004ADA"/>
<path d="M9.94815 16.5085C10.8307 19.2402 13.7725 20.7111 16.5041 19.7865C19.2358 18.904 20.7067 15.9622 19.7821 13.2306C18.8996 10.4989 15.9578 9.02799 13.2261 9.95256C10.5365 10.8771 9.06561 13.7769 9.94815 16.5085Z" fill="#004ADA"/>
<path d="M0.198361 24.6598C0.870771 26.677 3.0561 27.8117 5.11536 27.1393C7.13259 26.4669 8.26728 24.2816 7.59487 22.2223C6.88043 20.1631 4.6951 19.0704 2.63585 19.7428C0.618617 20.4152 -0.474049 22.6006 0.198361 24.6598Z" fill="#004ADA"/>
<path d="M4.10655 6.46334C4.5268 7.76613 5.95567 8.48056 7.30049 8.06031C8.60329 7.64005 9.31772 6.21118 8.89747 4.86636C8.47721 3.56357 7.04834 2.84913 5.70352 3.26939C4.40073 3.73167 3.68629 5.16054 4.10655 6.46334Z" fill="#004ADA"/>
</g>
<path d="M76.223 36.68C75.4665 36.722 74.7101 36.68 73.9536 36.5119C68.112 35.5033 64.1616 29.9138 65.2123 24.0723C65.5065 22.3072 66.2629 20.7102 67.2715 19.3654C65.7586 17.7684 64.9601 15.457 65.3804 13.1036C65.4224 12.7254 65.5485 12.3892 65.6325 12.053C64.5399 11.6747 63.3632 11.3806 62.1864 11.1704C48.8223 8.85901 36.0886 17.8105 33.7351 31.1746C31.4237 44.5388 40.3752 57.2725 53.7393 59.626C65.9267 61.7693 77.6098 54.4988 81.3081 43.0258C78.4503 42.1853 76.4331 39.6218 76.223 36.68Z" fill="#004ADA"/>
<path d="M76.2219 36.6805C75.4654 36.7225 74.709 36.6805 73.9525 36.5124C68.1109 35.5037 64.1605 29.9143 65.2112 24.0728C65.5054 22.3077 66.2618 20.7107 67.2704 19.3659C65.7575 17.7689 64.959 15.4575 65.3793 13.1041C65.4633 12.6838 65.5474 12.3056 65.6735 11.9274C64.917 11.7173 64.1605 11.5492 63.4041 11.4231C50.7123 9.19572 38.693 17.3067 36.5497 29.4941C34.4484 41.6815 43.0216 53.3646 55.7134 55.592C66.4299 57.4411 76.6421 51.9778 80.8867 42.9423C78.2391 41.9337 76.432 39.4541 76.2219 36.6805Z" fill="#004ADA"/>
<path d="M60.5471 18.4828C60.1268 20.8783 57.8575 22.5173 55.42 22.097C53.0245 21.6768 51.3855 19.4074 51.8058 16.9699C52.226 14.5744 54.4954 12.9354 56.9329 13.3557C59.3284 13.776 60.9674 16.0453 60.5471 18.4828Z" fill="white"/>
<path d="M58.8239 15.7092C58.6138 16.1715 57.6892 16.2555 56.8067 15.8353C55.9241 15.415 55.3778 14.7006 55.5879 14.1963C55.7981 13.734 56.7226 13.6499 57.6052 14.0702C58.5297 14.5325 59.034 15.2469 58.8239 15.7092Z" fill="white"/>
<path d="M47.9817 27.0144C47.5614 29.4099 45.292 31.0489 42.8545 30.6286C40.4591 30.2084 38.8201 27.939 39.2403 25.5015C39.6606 23.1061 41.93 21.4671 44.3675 21.8873C46.805 22.3076 48.4019 24.619 47.9817 27.0144Z" fill="white"/>
<path d="M46.3 24.2827C46.0899 24.745 45.1653 24.829 44.2828 24.4087C43.4002 23.9885 42.8539 23.2741 43.064 22.7697C43.2741 22.3075 44.1987 22.2234 45.0812 22.6437C45.9638 23.0639 46.5101 23.7784 46.3 24.2827Z" fill="white"/>
<path d="M66.4306 50.7591C66.0104 53.1545 63.741 54.7935 61.3035 54.3733C58.9081 53.953 57.2691 51.6836 57.6893 49.2461C58.1096 46.8507 60.379 45.2117 62.8164 45.6319C65.2539 46.0522 66.8509 48.3216 66.4306 50.7591Z" fill="white"/>
<path d="M64.7082 47.9848C64.4981 48.4471 63.5735 48.5311 62.691 48.1109C61.8084 47.6906 61.2621 46.9762 61.4722 46.4719C61.6823 46.0096 62.6069 45.9256 63.4894 46.3458C64.414 46.8081 64.9603 47.5225 64.7082 47.9848Z" fill="white"/>
<path d="M65.9263 36.4697C65.6321 38.1507 63.9931 39.3274 62.3121 39.0332C60.6311 38.739 59.4543 37.1 59.7485 35.419C60.0427 33.738 61.6817 32.5613 63.3627 32.8554C65.0858 33.1496 66.2625 34.7886 65.9263 36.4697Z" fill="white"/>
<path d="M64.7495 34.5365C64.5814 34.8727 63.951 34.9147 63.3206 34.6205C62.6903 34.3264 62.312 33.8221 62.4801 33.4859C62.6482 33.1497 63.2786 33.1076 63.909 33.4018C64.5394 33.696 64.9176 34.2003 64.7495 34.5365Z" fill="white"/>
<path d="M47.7293 42.3949C47.4351 44.076 45.7961 45.2527 44.1151 44.9585C42.434 44.6643 41.2573 43.0253 41.5515 41.3443C41.8457 39.6633 43.4847 38.4866 45.1657 38.7807C46.8887 39.0749 48.0234 40.6719 47.7293 42.3949Z" fill="white"/>
<path d="M46.511 40.4614C46.3429 40.7976 45.7125 40.8397 45.0821 40.5455C44.4517 40.2513 44.0735 39.747 44.2416 39.4108C44.4097 39.0746 45.0401 39.0326 45.6705 39.3267C46.3008 39.5789 46.6791 40.1252 46.511 40.4614Z" fill="white"/>
<path d="M75.6765 45.2528C75.5084 46.2614 74.4997 46.9758 73.4911 46.8077C72.4825 46.6396 71.7681 45.631 71.9362 44.6224C72.1043 43.5718 73.1129 42.8993 74.1215 43.0674C75.1721 43.2355 75.8446 44.2021 75.6765 45.2528Z" fill="white"/>
<path d="M74.9196 44.0764C74.8356 44.2865 74.4153 44.2865 74.0371 44.1184C73.6589 43.9503 73.4067 43.6141 73.5328 43.404C73.6168 43.1939 74.0371 43.1939 74.4153 43.362C74.7936 43.5721 75.0457 43.8663 74.9196 44.0764Z" fill="white"/>
<path d="M53.5707 34.9981C53.4026 36.0488 52.3939 36.7212 51.3853 36.5531C50.3347 36.385 49.6623 35.3764 49.8304 34.3678C49.9985 33.3171 51.0071 32.6447 52.0157 32.8128C53.0664 32.9809 53.7388 33.9475 53.5707 34.9981Z" fill="white"/>
<path d="M52.8564 33.8218C52.7724 34.0319 52.3521 34.0319 51.9739 33.8638C51.5956 33.6957 51.3435 33.3595 51.4696 33.1494C51.5536 32.9392 51.9739 32.9392 52.3521 33.1073C52.6883 33.3175 52.9405 33.6117 52.8564 33.8218Z" fill="white"/>
<path d="M61.5135 28.2745C61.3454 29.3251 60.3368 29.9976 59.3282 29.8295C58.2776 29.6614 57.6052 28.6527 57.7733 27.6441C57.9414 26.5935 58.95 25.9211 59.9586 26.0892C61.0092 26.2573 61.6816 27.2239 61.5135 28.2745Z" fill="white"/>
<path d="M60.7563 27.0977C60.6723 27.3078 60.252 27.3078 59.8738 27.1397C59.4955 26.9716 59.2434 26.6354 59.3695 26.4253C59.4535 26.2151 59.8738 26.2151 60.252 26.3832C60.6302 26.5513 60.8824 26.8875 60.7563 27.0977Z" fill="white"/>
<path d="M53.1503 48.4486C52.9822 49.4993 51.9735 50.1717 50.9649 50.0036C49.9143 49.8355 49.2419 48.8269 49.41 47.8183C49.5781 46.8096 50.5867 46.0952 51.5953 46.2633C52.6459 46.4314 53.3184 47.398 53.1503 48.4486Z" fill="white"/>
<path d="M52.4358 47.271C52.3517 47.4811 51.9314 47.4811 51.5532 47.313C51.175 47.1449 50.9228 46.8087 51.0489 46.5986C51.133 46.3885 51.5532 46.3885 51.9314 46.5566C52.2677 46.7247 52.5198 47.0609 52.4358 47.271Z" fill="white"/>
<path d="M57.9839 42.9412C57.2695 43.7397 55.7986 43.6556 54.7059 42.6891C53.6132 41.7225 53.319 40.2936 54.0335 39.4531C54.7479 38.6546 56.2188 38.7386 57.3115 39.7052C58.4041 40.6718 58.6983 42.1427 57.9839 42.9412Z" fill="#004ADA"/>
<path d="M44.1152 35.125C43.9891 35.8395 42.8964 36.2177 41.6357 36.0076C40.3749 35.7974 39.4923 35.041 39.6184 34.3686C39.7445 33.6541 40.8372 33.2759 42.0979 33.486C43.3167 33.6962 44.2412 34.4106 44.1152 35.125Z" fill="#004ADA"/>
<path d="M53.9074 27.6443C53.7813 28.4428 52.9828 28.9892 52.1843 28.8631C51.3859 28.737 50.8395 27.9385 50.9656 27.14C51.0917 26.3415 51.8902 25.7952 52.6887 25.9213C53.5292 26.0474 54.0755 26.8459 53.9074 27.6443Z" fill="#004ADA"/>
<path d="M69.2046 42.1858C68.4481 42.8582 67.5236 43.0263 67.1033 42.564C66.6831 42.1018 66.9352 41.1772 67.6917 40.5048C68.4482 39.8324 69.3727 39.6643 69.793 40.1266C70.2132 40.5888 69.9611 41.5134 69.2046 42.1858Z" fill="#004ADA"/>
<path d="M81.1403 26.552C80.636 29.3677 77.9884 31.2589 75.1727 30.7546C72.3569 30.2502 70.4658 27.6026 70.9701 24.7869C71.4744 21.9712 74.122 20.0801 76.9377 20.5844C79.7535 21.0466 81.6446 23.7363 81.1403 26.552Z" fill="#004ADA"/>
<path d="M81.2251 25.3745C81.099 23.021 79.376 20.9618 76.9385 20.5415C75.2575 20.2473 73.6185 20.7937 72.4838 21.8863C72.1476 22.4327 71.8954 23.1051 71.7693 23.7775C71.265 26.5932 72.9881 29.2408 75.5937 29.7031C78.1992 30.1654 80.7208 28.2322 81.1831 25.4165C81.1831 25.4165 81.1831 25.4165 81.2251 25.3745Z" fill="#004ADA"/>
<path d="M91.9824 33.1494C91.6041 35.2507 89.5869 36.6796 87.4856 36.3013C85.3843 35.9231 83.9555 33.9059 84.3337 31.8046C84.7119 29.7033 86.7292 28.2744 88.8304 28.6527C90.9317 29.0309 92.3606 31.0481 91.9824 33.1494Z" fill="#004ADA"/>
<path d="M92.0242 32.3093C91.9401 30.5442 90.6373 28.9893 88.8302 28.6951C87.5695 28.485 86.3507 28.9052 85.4682 29.7037C85.216 30.124 85.0479 30.5863 84.9219 31.1326C84.5436 33.2339 85.8464 35.2511 87.7796 35.5873C89.7128 35.9235 91.6039 34.4947 91.9822 32.3934C92.0242 32.3093 92.0242 32.3093 92.0242 32.3093Z" fill="#004ADA"/>
<path d="M85.4269 15.7509C85.1747 17.1378 83.8719 18.0203 82.5271 17.8102C81.1403 17.558 80.2577 16.2552 80.4679 14.9104C80.72 13.5236 82.0228 12.641 83.3676 12.8512C84.7545 13.1033 85.679 14.4061 85.4269 15.7509Z" fill="#004ADA"/>
<path d="M85.4683 15.2044C85.4263 14.0698 84.5858 13.0611 83.409 12.851C82.6106 12.7249 81.8121 12.9771 81.2237 13.5234C81.0556 13.8176 80.9295 14.1118 80.8875 14.448C80.6354 15.8348 81.4759 17.0956 82.7366 17.3057C83.9974 17.5159 85.2161 16.5913 85.4683 15.2044Z" fill="#004ADA"/>
</svg>
