<svg width="51" height="50" viewBox="0 0 51 50" fill="none" xmlns="http://www.w3.org/2000/svg">
<g clip-path="url(#clip0_2196_2780)">
<path d="M0.065918 37.1416V49.5231H12.7851V45.6802H4.01314V37.1416H0.065918Z" fill="#D72028"/>
<path d="M25.5044 45.6804H12.7852V49.5227H25.5044V45.6804Z" fill="#C36485"/>
<path d="M38.2246 45.6804H25.5049V49.5227H38.2246V45.6804Z" fill="#9D2588"/>
<path d="M46.9959 37.1416V45.6802H38.2246V49.5231H50.9434V37.1416H46.9959Z" fill="#2B3174"/>
<path d="M4.01359 24.7617H0.065918V37.1423H4.01359V24.7617Z" fill="#E97C25"/>
<path d="M50.9437 24.7617H46.9956V37.1423H50.9437V24.7617Z" fill="#5CC4BA"/>
<path d="M4.01359 12.3806H0.065918V24.7615H4.01359V12.3806Z" fill="#FCCA13"/>
<path d="M50.9437 12.3806H46.9956V24.7615H50.9437V12.3806Z" fill="#08B391"/>
<path d="M0.065918 0V12.3806H4.01314V3.84295H12.7851V0H0.065918Z" fill="#F6EA07"/>
<path d="M25.5044 0H12.7852V3.84273H25.5044V0Z" fill="#C6D82D"/>
<path d="M38.2246 0H25.5049V3.84273H38.2246V0Z" fill="#7BBB42"/>
<path d="M38.2246 0V3.84295H46.9959V12.3806H50.9441V0H38.2246Z" fill="#288D44"/>
<mask id="mask0_2196_2780" style="mask-type:luminance" maskUnits="userSpaceOnUse" x="0" y="0" width="51" height="50">
<path d="M50.9438 0H0V50H50.9438V0Z" fill="white"/>
</mask>
<g mask="url(#mask0_2196_2780)">
<path fill-rule="evenodd" clip-rule="evenodd" d="M41.5482 18.1286C41.0389 22.7569 33.8081 25.0725 29.8167 25.5597L37.9935 37.3445L29.1678 37.3077L20.6189 23.9356L21.7465 23.9872C25.2538 23.9664 34.7553 22.5183 34.3053 18.0532C33.8021 13.0538 24.9568 13.7534 20.7292 14.3615C20.5115 14.5879 16.5735 36.9283 16.4955 37.3445H9.53955L14.1644 13.2224L14.2156 13.0951C20.3167 11.9558 42.5777 9.08468 41.5482 18.1286Z" fill="#444444"/>
</g>
</g>
<defs>
<clipPath id="clip0_2196_2780">
<rect width="51" height="50" fill="white"/>
</clipPath>
</defs>
</svg>
