<svg width="59" height="78" viewBox="0 0 59 78" fill="none" xmlns="http://www.w3.org/2000/svg">
<g clip-path="url(#clip0_2107_1335)">
<path d="M0.076416 44.012V58.6837H14.7908V54.1299H4.64281V44.012H0.076416Z" fill="#D72028"/>
<path d="M29.5052 54.1302H14.7908V58.6833H29.5052V54.1302Z" fill="#C36485"/>
<path d="M44.2203 54.1302H29.5054V58.6833H44.2203V54.1302Z" fill="#9D2588"/>
<path d="M54.3679 44.0118V54.1298H44.2207V58.6836H58.9346V44.0118H54.3679Z" fill="#2B3174"/>
<path d="M4.64308 29.3422H0.0761719V44.0129H4.64308V29.3422Z" fill="#E97C25"/>
<path d="M58.9351 29.3422H54.3677V44.0129H58.9351V29.3422Z" fill="#5CC4BA"/>
<path d="M4.64308 14.6707H0.0761719V29.3417H4.64308V14.6707Z" fill="#FCCA13"/>
<path d="M58.9351 14.6708H54.3677V29.3418H58.9351V14.6708Z" fill="#08B391"/>
<path d="M0.076416 0V14.6707H4.64281V4.5538H14.7908V0H0.076416Z" fill="#F6EA07"/>
<path d="M29.5052 0H14.7908V4.55354H29.5052V0Z" fill="#C6D82D"/>
<path d="M44.2203 0H29.5054V4.55354H44.2203V0Z" fill="#7BBB42"/>
<path d="M44.2207 0V4.5538H54.3679V14.6707H58.9354V0H44.2207Z" fill="#288D44"/>
<mask id="mask0_2107_1335" style="mask-type:luminance" maskUnits="userSpaceOnUse" x="0" y="0" width="59" height="79">
<path d="M58.935 0H0V78.0881H58.935V0Z" fill="white"/>
</mask>
<g mask="url(#mask0_2107_1335)">
<path fill-rule="evenodd" clip-rule="evenodd" d="M5.3152 71.7027C5.5499 71.8499 5.72846 72.0482 5.90078 72.3073L9.29939 77.8505H6.93107L3.37366 71.8074H2.04447V77.8505H0V63.7252H4.48036C7.28689 63.7252 8.64259 64.8405 8.64259 67.717C8.64259 69.9235 7.45661 71.4747 5.3152 71.7027ZM12.6372 72.7981V73.1656C12.6372 74.8714 13.3441 76.6442 15.3117 76.6442C16.4173 76.6442 17.699 76.3879 18.6653 75.83L18.7979 75.753L19.3447 77.248L19.2475 77.3009C18.1159 77.9075 16.5748 78.0884 15.3114 78.0884C11.8237 78.0884 10.573 75.83 10.573 72.6115C10.573 69.5195 11.8671 66.9559 15.2906 66.9559C19.0744 66.9559 19.4736 69.4856 19.4736 72.6706V72.7981H12.6372ZM29.9068 69.5467V77.8505H27.9816V70.0554C27.9816 69.0093 27.3752 68.3005 26.3015 68.3005C25.2525 68.3005 24.479 68.7727 23.8259 69.547V77.8507H21.901V67.1932H23.2431L23.4698 68.1655C24.2703 67.3472 25.3461 66.9561 26.5004 66.9561C27.5546 66.9561 28.9121 67.2067 29.4597 68.2132C30.301 67.412 31.4078 66.9561 32.5815 66.9561C34.4368 66.9561 35.9887 67.7162 35.9887 69.8178V77.8507H34.0638V70.0557C34.0638 69.0056 33.4343 68.3008 32.3629 68.3008C31.3098 68.3003 30.5604 68.7719 29.9068 69.5467ZM40.4407 72.7981V73.1656C40.4407 74.8714 41.148 76.6442 43.1152 76.6442C44.2209 76.6442 45.5025 76.3879 46.4689 75.83L46.6004 75.753L47.1483 77.248L47.0503 77.3001C45.9194 77.9075 44.3781 78.0884 43.115 78.0884C39.6267 78.0884 38.376 75.83 38.376 72.6115C38.376 69.5195 39.6704 66.9559 43.095 66.9559C46.8774 66.9559 47.2767 69.4856 47.2767 72.6706V72.7981H40.4407ZM54.8869 70.5915L58.7902 77.8505H56.5093L53.7433 72.2767L50.7829 77.8505H48.6979L52.6075 70.9841L48.7041 63.7252H50.9851L53.7511 69.3182L56.7107 63.7252H58.7957L54.8869 70.5915ZM2.04447 65.2684V70.2645H4.18172C6.06816 70.2645 6.49832 69.462 6.49832 67.717C6.49832 66.1082 5.96758 65.2684 4.22201 65.2684H2.04447ZM17.5677 71.5125C17.5581 69.8351 17.3304 68.3205 15.2909 68.3205C13.4133 68.3205 12.6749 69.8701 12.6385 71.5125H17.5677ZM45.371 71.5125C45.3609 69.8351 45.1337 68.3205 43.095 68.3205C41.216 68.3205 40.4776 69.8701 40.4418 71.5125H45.371Z" fill="white"/>
</g>
<mask id="mask1_2107_1335" style="mask-type:luminance" maskUnits="userSpaceOnUse" x="0" y="0" width="59" height="79">
<path d="M58.935 0H0V78.0881H58.935V0Z" fill="white"/>
</mask>
<g mask="url(#mask1_2107_1335)">
<path fill-rule="evenodd" clip-rule="evenodd" d="M48.0655 21.4821C47.4763 26.9665 39.1113 29.7105 34.4937 30.2878L43.9532 44.2524L33.7431 44.2089L23.8532 28.3632L25.1577 28.4244C29.2152 28.3998 40.2071 26.6838 39.6865 21.3927C39.1043 15.4686 28.8716 16.2976 23.9808 17.0182C23.7289 17.2864 19.1732 43.7593 19.083 44.2524H11.0359L16.3862 15.6684L16.4454 15.5176C23.5036 14.1675 49.2564 10.7653 48.0655 21.4821Z" fill="white"/>
</g>
</g>
<defs>
<clipPath id="clip0_2107_1335">
<rect width="59" height="78" fill="white"/>
</clipPath>
</defs>
</svg>
