<svg width="207" height="58" viewBox="0 0 207 58" fill="none" xmlns="http://www.w3.org/2000/svg">
<g clip-path="url(#clip0_201_3244)">
<path d="M4.43062 14.5002H0V29.0004H4.43062V14.5002Z" fill="#FACB15"/>
<path d="M4.43062 29H0V43.5001H4.43062V29Z" fill="#F0820F"/>
<path d="M4.43062 53.5697V43.5002H0V58.0001H14.5001V53.5697H4.43062Z" fill="#D81327"/>
<path d="M29.0003 53.5696H14.5001V58.0002H29.0003V53.5696Z" fill="#C26186"/>
<path d="M43.5001 53.5696H29V58.0002H43.5001V53.5696Z" fill="#9C2484"/>
<path d="M53.5696 43.5002V53.5697H43.5001V58.0001H58V43.5002H53.5696Z" fill="#263065"/>
<path d="M58.0003 29H53.5696V43.5001H58.0003V29Z" fill="#63BFB4"/>
<path d="M58.0003 14.5002H53.5696V29.0004H58.0003V14.5002Z" fill="#1DAE8B"/>
<path d="M43.5001 0V4.43062H53.5696V14.5001H58V0H43.5001Z" fill="#328C36"/>
<path d="M43.5001 0H29V4.43062H43.5001V0Z" fill="#7AB929"/>
<path d="M29.0003 0H14.5001V4.43062H29.0003V0Z" fill="#C8D41F"/>
<path d="M4.43062 4.43062H14.5001V0H0V14.5001H4.43062V4.43062Z" fill="#F6E838"/>
<path d="M18.5305 43.5H10.8751L16.0219 15.2558C29.2846 13.2695 39.2482 13.2671 44.0917 15.7749C48.8214 18.0637 47.7834 23.6097 43.544 26.3714C40.336 28.4849 36.945 29.4545 33.7113 29.8314L43.0534 43.5003L33.1489 43.4858L23.4611 27.9716C28.5034 28.1833 32.6783 27.2177 36.1769 25.3334C40.613 23.2251 39.479 18.6117 35.8264 17.1697C33.2696 16.074 29.0412 15.7269 23.3312 16.8129L18.5305 43.5Z" fill="#424242"/>
</g>
<path opacity="0.5" d="M74.08 36.0002V28.1282H75.34L76.828 32.3402C76.924 32.6042 77.012 32.8682 77.092 33.1322C77.18 33.3962 77.268 33.6762 77.356 33.9722H77.404C77.492 33.6762 77.576 33.3962 77.656 33.1322C77.736 32.8682 77.82 32.6042 77.908 32.3402L79.396 28.1282H80.644V36.0002H79.708V31.6682C79.708 31.4362 79.716 31.1762 79.732 30.8882C79.748 30.6002 79.764 30.3162 79.78 30.0362C79.804 29.7482 79.828 29.4882 79.852 29.2562H79.804L79.192 31.1522L77.716 35.2202H76.984L75.508 31.1522L74.896 29.2562H74.848C74.872 29.4882 74.892 29.7482 74.908 30.0362C74.932 30.3162 74.952 30.6002 74.968 30.8882C74.984 31.1762 74.992 31.4362 74.992 31.6682V36.0002H74.08ZM84.0468 36.1442C83.7268 36.1442 83.4348 36.0802 83.1708 35.9522C82.9148 35.8162 82.7108 35.6282 82.5588 35.3882C82.4068 35.1402 82.3308 34.8402 82.3308 34.4882C82.3308 33.8322 82.6188 33.3362 83.1948 33.0002C83.7708 32.6642 84.6828 32.4282 85.9308 32.2922C85.9228 32.0522 85.8828 31.8202 85.8108 31.5962C85.7468 31.3722 85.6268 31.1922 85.4508 31.0562C85.2748 30.9202 85.0308 30.8522 84.7188 30.8522C84.3828 30.8522 84.0668 30.9162 83.7708 31.0442C83.4748 31.1642 83.2108 31.3002 82.9788 31.4522L82.5948 30.7802C82.7708 30.6602 82.9788 30.5442 83.2188 30.4322C83.4588 30.3122 83.7188 30.2162 83.9988 30.1442C84.2788 30.0642 84.5748 30.0242 84.8867 30.0242C85.3588 30.0242 85.7428 30.1242 86.0388 30.3242C86.3428 30.5162 86.5628 30.7922 86.6988 31.1522C86.8428 31.5122 86.9148 31.9362 86.9148 32.4242V36.0002H86.0988L86.0148 35.3042H85.9788C85.6988 35.5362 85.3988 35.7362 85.0788 35.9042C84.7588 36.0642 84.4148 36.1442 84.0468 36.1442ZM84.3228 35.3282C84.6108 35.3282 84.8788 35.2642 85.1268 35.1362C85.3828 35.0082 85.6508 34.8202 85.9308 34.5722V33.0002C85.2748 33.0802 84.7548 33.1842 84.3708 33.3122C83.9948 33.4322 83.7228 33.5842 83.5548 33.7682C83.3868 33.9522 83.3027 34.1722 83.3027 34.4282C83.3027 34.7482 83.4028 34.9802 83.6028 35.1242C83.8028 35.2602 84.0428 35.3282 84.3228 35.3282ZM89.8696 36.0002V30.9722H87.9136V30.1682H92.8096V30.9722H90.8536V36.0002H89.8696ZM96.305 36.1442C95.785 36.1442 95.309 36.0242 94.877 35.7842C94.453 35.5362 94.117 35.1882 93.869 34.7402C93.621 34.2842 93.497 33.7322 93.497 33.0842C93.497 32.4522 93.625 31.9082 93.881 31.4522C94.137 30.9962 94.465 30.6442 94.865 30.3962C95.265 30.1482 95.689 30.0242 96.137 30.0242C96.633 30.0242 97.053 30.1402 97.397 30.3722C97.749 30.5962 98.013 30.9122 98.189 31.3202C98.365 31.7282 98.453 32.2082 98.453 32.7602C98.453 32.8642 98.449 32.9642 98.441 33.0602C98.441 33.1562 98.429 33.2522 98.405 33.3482H94.205V32.5682H97.565C97.565 32.0082 97.441 31.5802 97.193 31.2842C96.953 30.9802 96.605 30.8282 96.149 30.8282C95.885 30.8282 95.625 30.9042 95.369 31.0562C95.113 31.2002 94.901 31.4362 94.733 31.7642C94.573 32.0922 94.493 32.5282 94.493 33.0722C94.493 33.5682 94.577 33.9842 94.745 34.3202C94.921 34.6562 95.157 34.9122 95.453 35.0882C95.749 35.2562 96.073 35.3402 96.425 35.3402C96.705 35.3402 96.965 35.3002 97.205 35.2202C97.453 35.1402 97.677 35.0322 97.877 34.8962L98.237 35.5442C97.981 35.7202 97.693 35.8642 97.373 35.9762C97.061 36.0882 96.705 36.1442 96.305 36.1442ZM99.8942 38.4602V30.1682H100.71L100.794 30.8402H100.83C101.094 30.6162 101.386 30.4242 101.706 30.2642C102.026 30.1042 102.354 30.0242 102.69 30.0242C103.186 30.0242 103.606 30.1482 103.95 30.3962C104.294 30.6362 104.554 30.9802 104.73 31.4282C104.906 31.8682 104.994 32.3922 104.994 33.0002C104.994 33.6562 104.874 34.2202 104.634 34.6922C104.402 35.1642 104.094 35.5242 103.71 35.7722C103.326 36.0202 102.914 36.1442 102.474 36.1442C102.21 36.1442 101.942 36.0842 101.67 35.9642C101.398 35.8442 101.126 35.6802 100.854 35.4722L100.878 36.4922V38.4602H99.8942ZM102.306 35.3162C102.626 35.3162 102.91 35.2242 103.158 35.0402C103.414 34.8562 103.614 34.5922 103.758 34.2482C103.902 33.8962 103.974 33.4802 103.974 33.0002C103.974 32.5762 103.922 32.2042 103.818 31.8842C103.714 31.5562 103.55 31.3042 103.326 31.1282C103.102 30.9442 102.806 30.8522 102.438 30.8522C102.198 30.8522 101.95 30.9202 101.694 31.0562C101.438 31.1842 101.166 31.3802 100.878 31.6442V34.7042C101.15 34.9282 101.406 35.0882 101.646 35.1842C101.894 35.2722 102.114 35.3162 102.306 35.3162ZM106.55 36.0002V30.1682H107.51V32.5922C107.51 32.9122 107.502 33.2522 107.486 33.6122C107.47 33.9722 107.446 34.3602 107.414 34.7762H107.462C107.574 34.5602 107.698 34.3322 107.834 34.0922C107.978 33.8442 108.106 33.6322 108.218 33.4562L110.282 30.1682H111.362V36.0002H110.402V33.5762C110.402 33.2642 110.41 32.9282 110.426 32.5682C110.442 32.2002 110.466 31.8082 110.498 31.3922H110.45C110.338 31.6082 110.214 31.8402 110.078 32.0882C109.942 32.3282 109.814 32.5402 109.694 32.7242L107.618 36.0002H106.55ZM114.68 36.1442C114.36 36.1442 114.068 36.0802 113.804 35.9522C113.548 35.8162 113.344 35.6282 113.192 35.3882C113.04 35.1402 112.964 34.8402 112.964 34.4882C112.964 33.8322 113.252 33.3362 113.828 33.0002C114.404 32.6642 115.316 32.4282 116.564 32.2922C116.556 32.0522 116.516 31.8202 116.444 31.5962C116.38 31.3722 116.26 31.1922 116.084 31.0562C115.908 30.9202 115.664 30.8522 115.352 30.8522C115.016 30.8522 114.7 30.9162 114.404 31.0442C114.108 31.1642 113.844 31.3002 113.612 31.4522L113.228 30.7802C113.404 30.6602 113.612 30.5442 113.852 30.4322C114.092 30.3122 114.352 30.2162 114.632 30.1442C114.912 30.0642 115.208 30.0242 115.52 30.0242C115.992 30.0242 116.376 30.1242 116.672 30.3242C116.976 30.5162 117.196 30.7922 117.332 31.1522C117.476 31.5122 117.548 31.9362 117.548 32.4242V36.0002H116.732L116.648 35.3042H116.612C116.332 35.5362 116.032 35.7362 115.712 35.9042C115.392 36.0642 115.048 36.1442 114.68 36.1442ZM114.956 35.3282C115.244 35.3282 115.512 35.2642 115.76 35.1362C116.016 35.0082 116.284 34.8202 116.564 34.5722V33.0002C115.908 33.0802 115.388 33.1842 115.004 33.3122C114.628 33.4322 114.356 33.5842 114.188 33.7682C114.02 33.9522 113.936 34.1722 113.936 34.4282C113.936 34.7482 114.036 34.9802 114.236 35.1242C114.436 35.2602 114.676 35.3282 114.956 35.3282ZM119.046 36.1082C118.942 36.1082 118.85 36.1002 118.77 36.0842C118.69 36.0682 118.606 36.0442 118.518 36.0122L118.71 35.1122C118.75 35.1202 118.79 35.1322 118.83 35.1482C118.878 35.1562 118.926 35.1602 118.974 35.1602C119.174 35.1602 119.342 35.0642 119.478 34.8722C119.614 34.6722 119.706 34.3642 119.754 33.9482C119.834 33.3242 119.91 32.6962 119.982 32.0642C120.054 31.4322 120.126 30.8002 120.198 30.1682H123.786V36.0002H122.79V30.9722H120.978C120.914 31.5082 120.85 32.0482 120.786 32.5922C120.73 33.1282 120.666 33.6642 120.594 34.2002C120.514 34.8322 120.342 35.3082 120.078 35.6282C119.822 35.9482 119.478 36.1082 119.046 36.1082ZM125.757 36.0002V30.1682H126.741V32.3162H127.569C128.025 32.3162 128.429 32.3802 128.781 32.5082C129.133 32.6362 129.405 32.8362 129.597 33.1082C129.789 33.3722 129.885 33.7162 129.885 34.1402C129.885 34.5722 129.789 34.9242 129.597 35.1962C129.405 35.4682 129.133 35.6722 128.781 35.8082C128.429 35.9362 128.025 36.0002 127.569 36.0002H125.757ZM126.741 35.2082H127.461C127.957 35.2082 128.321 35.1242 128.553 34.9562C128.793 34.7802 128.913 34.5082 128.913 34.1402C128.913 33.7722 128.793 33.5042 128.553 33.3362C128.321 33.1682 127.957 33.0842 127.461 33.0842H126.741V35.2082ZM130.893 36.0002V30.1682H131.877V36.0002H130.893ZM136.45 36.0002V38.0642H135.598L135.49 35.8202V35.1962H141.382V35.8202L141.286 38.0642H140.434V36.0002H136.45ZM139.546 35.7002V30.9722H137.686L137.458 32.9402C137.402 33.4762 137.322 33.9242 137.218 34.2842C137.122 34.6362 137.006 34.9162 136.87 35.1242C136.742 35.3322 136.602 35.4842 136.45 35.5802C136.306 35.6762 136.158 35.7402 136.006 35.7722L135.778 35.1962C135.89 35.1402 135.994 35.0402 136.09 34.8962C136.186 34.7522 136.274 34.5162 136.354 34.1882C136.442 33.8602 136.522 33.3802 136.594 32.7482L136.906 30.1682H140.53V35.7002H139.546ZM142.519 36.1082C142.415 36.1082 142.323 36.1002 142.243 36.0842C142.163 36.0682 142.079 36.0442 141.991 36.0122L142.183 35.1122C142.223 35.1202 142.263 35.1322 142.303 35.1482C142.351 35.1562 142.399 35.1602 142.447 35.1602C142.647 35.1602 142.815 35.0642 142.951 34.8722C143.087 34.6722 143.179 34.3642 143.227 33.9482C143.307 33.3242 143.383 32.6962 143.455 32.0642C143.527 31.4322 143.599 30.8002 143.671 30.1682H147.259V36.0002H146.263V30.9722H144.451C144.387 31.5082 144.323 32.0482 144.259 32.5922C144.203 33.1282 144.139 33.6642 144.067 34.2002C143.987 34.8322 143.815 35.3082 143.551 35.6282C143.295 35.9482 142.951 36.1082 142.519 36.1082ZM152.446 36.0002V33.7202H151.354C151.074 33.7202 150.798 33.6882 150.526 33.6242C150.254 33.5522 150.01 33.4442 149.794 33.3002C149.578 33.1482 149.402 32.9562 149.266 32.7242C149.138 32.4922 149.074 32.2162 149.074 31.8962C149.074 31.4642 149.174 31.1242 149.374 30.8762C149.582 30.6202 149.858 30.4402 150.202 30.3362C150.546 30.2242 150.934 30.1682 151.366 30.1682H153.43V36.0002H152.446ZM151.534 32.9522H152.446V30.9362H151.534C151.078 30.9362 150.718 31.0162 150.454 31.1762C150.198 31.3282 150.07 31.5722 150.07 31.9082C150.07 32.2442 150.198 32.5042 150.454 32.6882C150.718 32.8642 151.078 32.9522 151.534 32.9522ZM148.642 36.0002L150.67 33.2282L151.498 33.5282L149.77 36.0002H148.642ZM157.808 38.4602V30.1682H158.624L158.708 30.8402H158.744C159.008 30.6162 159.3 30.4242 159.62 30.2642C159.94 30.1042 160.268 30.0242 160.604 30.0242C161.1 30.0242 161.52 30.1482 161.864 30.3962C162.208 30.6362 162.468 30.9802 162.644 31.4282C162.82 31.8682 162.908 32.3922 162.908 33.0002C162.908 33.6562 162.788 34.2202 162.548 34.6922C162.316 35.1642 162.008 35.5242 161.624 35.7722C161.24 36.0202 160.828 36.1442 160.388 36.1442C160.124 36.1442 159.856 36.0842 159.584 35.9642C159.312 35.8442 159.04 35.6802 158.768 35.4722L158.792 36.4922V38.4602H157.808ZM160.22 35.3162C160.54 35.3162 160.824 35.2242 161.072 35.0402C161.328 34.8562 161.528 34.5922 161.672 34.2482C161.816 33.8962 161.888 33.4802 161.888 33.0002C161.888 32.5762 161.836 32.2042 161.732 31.8842C161.628 31.5562 161.464 31.3042 161.24 31.1282C161.016 30.9442 160.72 30.8522 160.352 30.8522C160.112 30.8522 159.864 30.9202 159.608 31.0562C159.352 31.1842 159.08 31.3802 158.792 31.6442V34.7042C159.064 34.9282 159.32 35.0882 159.56 35.1842C159.808 35.2722 160.028 35.3162 160.22 35.3162ZM166.828 36.1442C166.308 36.1442 165.832 36.0242 165.4 35.7842C164.976 35.5362 164.64 35.1882 164.392 34.7402C164.144 34.2842 164.02 33.7322 164.02 33.0842C164.02 32.4522 164.148 31.9082 164.404 31.4522C164.66 30.9962 164.988 30.6442 165.388 30.3962C165.788 30.1482 166.212 30.0242 166.66 30.0242C167.156 30.0242 167.576 30.1402 167.92 30.3722C168.272 30.5962 168.536 30.9122 168.712 31.3202C168.888 31.7282 168.976 32.2082 168.976 32.7602C168.976 32.8642 168.972 32.9642 168.964 33.0602C168.964 33.1562 168.952 33.2522 168.928 33.3482H164.728V32.5682H168.088C168.088 32.0082 167.964 31.5802 167.716 31.2842C167.476 30.9802 167.128 30.8282 166.672 30.8282C166.408 30.8282 166.148 30.9042 165.892 31.0562C165.636 31.2002 165.424 31.4362 165.256 31.7642C165.096 32.0922 165.016 32.5282 165.016 33.0722C165.016 33.5682 165.1 33.9842 165.268 34.3202C165.444 34.6562 165.68 34.9122 165.976 35.0882C166.272 35.2562 166.596 35.3402 166.948 35.3402C167.228 35.3402 167.488 35.3002 167.728 35.2202C167.976 35.1402 168.2 35.0322 168.4 34.8962L168.76 35.5442C168.504 35.7202 168.216 35.8642 167.896 35.9762C167.584 36.0882 167.228 36.1442 166.828 36.1442ZM170.418 36.0002V30.1682H171.402V32.5682H172.626L173.202 31.2722C173.362 30.9282 173.518 30.6722 173.67 30.5042C173.83 30.3282 173.994 30.2082 174.162 30.1442C174.338 30.0802 174.534 30.0482 174.75 30.0482C174.878 30.0482 174.994 30.0722 175.098 30.1202L174.918 31.0442C174.886 31.0282 174.854 31.0202 174.822 31.0202C174.798 31.0122 174.766 31.0082 174.726 31.0082C174.574 31.0082 174.43 31.0522 174.294 31.1402C174.166 31.2282 174.03 31.4402 173.886 31.7762L173.382 32.9282L175.266 36.0002H174.186L172.662 33.3722H171.402V36.0002H170.418ZM176.023 36.1082C175.919 36.1082 175.827 36.1002 175.747 36.0842C175.667 36.0682 175.583 36.0442 175.495 36.0122L175.687 35.1122C175.727 35.1202 175.767 35.1322 175.807 35.1482C175.855 35.1562 175.903 35.1602 175.951 35.1602C176.151 35.1602 176.319 35.0642 176.455 34.8722C176.591 34.6722 176.683 34.3642 176.731 33.9482C176.811 33.3242 176.887 32.6962 176.959 32.0642C177.031 31.4322 177.103 30.8002 177.175 30.1682H180.763V36.0002H179.767V30.9722H177.955C177.891 31.5082 177.827 32.0482 177.763 32.5922C177.707 33.1282 177.643 33.6642 177.571 34.2002C177.491 34.8322 177.319 35.3082 177.055 35.6282C176.799 35.9482 176.455 36.1082 176.023 36.1082ZM184.078 36.1442C183.758 36.1442 183.466 36.0802 183.202 35.9522C182.946 35.8162 182.742 35.6282 182.59 35.3882C182.438 35.1402 182.362 34.8402 182.362 34.4882C182.362 33.8322 182.65 33.3362 183.226 33.0002C183.802 32.6642 184.714 32.4282 185.962 32.2922C185.954 32.0522 185.914 31.8202 185.842 31.5962C185.778 31.3722 185.658 31.1922 185.482 31.0562C185.306 30.9202 185.062 30.8522 184.75 30.8522C184.414 30.8522 184.098 30.9162 183.802 31.0442C183.506 31.1642 183.242 31.3002 183.01 31.4522L182.626 30.7802C182.802 30.6602 183.01 30.5442 183.25 30.4322C183.49 30.3122 183.75 30.2162 184.03 30.1442C184.31 30.0642 184.606 30.0242 184.918 30.0242C185.39 30.0242 185.774 30.1242 186.07 30.3242C186.374 30.5162 186.594 30.7922 186.73 31.1522C186.874 31.5122 186.946 31.9362 186.946 32.4242V36.0002H186.13L186.046 35.3042H186.01C185.73 35.5362 185.43 35.7362 185.11 35.9042C184.79 36.0642 184.446 36.1442 184.078 36.1442ZM184.354 35.3282C184.642 35.3282 184.91 35.2642 185.158 35.1362C185.414 35.0082 185.682 34.8202 185.962 34.5722V33.0002C185.306 33.0802 184.786 33.1842 184.402 33.3122C184.026 33.4322 183.754 33.5842 183.586 33.7682C183.418 33.9522 183.334 34.1722 183.334 34.4282C183.334 34.7482 183.434 34.9802 183.634 35.1242C183.834 35.2602 184.074 35.3282 184.354 35.3282ZM188.781 36.0002V30.1682H189.969L191.097 32.8802C191.185 33.1042 191.269 33.3322 191.349 33.5642C191.437 33.7962 191.517 34.0482 191.589 34.3202H191.637C191.725 34.0482 191.805 33.7962 191.877 33.5642C191.957 33.3322 192.041 33.1042 192.129 32.8802L193.221 30.1682H194.421V36.0002H193.509V33.3842C193.509 33.2002 193.513 32.9922 193.521 32.7602C193.537 32.5202 193.553 32.2762 193.569 32.0282C193.585 31.7802 193.601 31.5522 193.617 31.3442H193.569C193.489 31.5922 193.401 31.8402 193.305 32.0882C193.217 32.3362 193.129 32.5722 193.041 32.7962L191.973 35.4482H191.229L190.137 32.7962C190.057 32.5722 189.969 32.3362 189.873 32.0882C189.785 31.8402 189.697 31.5922 189.609 31.3442H189.561C189.577 31.5522 189.593 31.7802 189.609 32.0282C189.633 32.2762 189.649 32.5202 189.657 32.7602C189.665 32.9922 189.669 33.2002 189.669 33.3842V36.0002H188.781ZM196.375 36.0002V30.1682H197.359V32.3162H198.187C198.643 32.3162 199.047 32.3802 199.399 32.5082C199.751 32.6362 200.023 32.8362 200.215 33.1082C200.407 33.3722 200.503 33.7162 200.503 34.1402C200.503 34.5722 200.407 34.9242 200.215 35.1962C200.023 35.4682 199.751 35.6722 199.399 35.8082C199.047 35.9362 198.643 36.0002 198.187 36.0002H196.375ZM197.359 35.2082H198.079C198.575 35.2082 198.939 35.1242 199.171 34.9562C199.411 34.7802 199.531 34.5082 199.531 34.1402C199.531 33.7722 199.411 33.5042 199.171 33.3362C198.939 33.1682 198.575 33.0842 198.079 33.0842H197.359V35.2082ZM201.511 36.0002V30.1682H202.495V36.0002H201.511ZM204.281 38.0402L204.041 37.4642C204.385 37.3122 204.653 37.1042 204.845 36.8402C205.037 36.5842 205.129 36.2962 205.121 35.9762L205.013 35.0882L205.505 35.8082C205.433 35.8802 205.353 35.9322 205.265 35.9642C205.185 35.9962 205.097 36.0122 205.001 36.0122C204.809 36.0122 204.641 35.9522 204.497 35.8322C204.361 35.7122 204.293 35.5442 204.293 35.3282C204.293 35.1122 204.365 34.9442 204.509 34.8242C204.661 34.6962 204.833 34.6322 205.025 34.6322C205.289 34.6322 205.493 34.7362 205.637 34.9442C205.781 35.1442 205.853 35.4282 205.853 35.7962C205.853 36.3082 205.713 36.7602 205.433 37.1522C205.153 37.5442 204.769 37.8402 204.281 38.0402ZM74.188 50.0002V52.0642H73.336L73.228 49.8202V49.1962H79.12V49.8202L79.024 52.0642H78.172V50.0002H74.188ZM77.284 49.7002V44.9722H75.424L75.196 46.9402C75.14 47.4762 75.06 47.9242 74.956 48.2842C74.86 48.6362 74.744 48.9162 74.608 49.1242C74.48 49.3322 74.34 49.4842 74.188 49.5802C74.044 49.6762 73.896 49.7402 73.744 49.7722L73.516 49.1962C73.628 49.1402 73.732 49.0402 73.828 48.8962C73.924 48.7522 74.012 48.5162 74.092 48.1882C74.18 47.8602 74.26 47.3802 74.332 46.7482L74.644 44.1682H78.268V49.7002H77.284ZM80.3824 50.0002V44.1682H81.3424V46.5922C81.3424 46.9122 81.3344 47.2522 81.3184 47.6122C81.3024 47.9722 81.2784 48.3602 81.2464 48.7762H81.2944C81.4064 48.5602 81.5304 48.3322 81.6664 48.0922C81.8104 47.8442 81.9384 47.6322 82.0504 47.4562L84.1144 44.1682H85.1944V50.0002H84.2344V47.5762C84.2344 47.2642 84.2424 46.9282 84.2584 46.5682C84.2744 46.2002 84.2984 45.8082 84.3304 45.3922H84.2824C84.1704 45.6082 84.0464 45.8402 83.9104 46.0882C83.7744 46.3282 83.6464 46.5402 83.5264 46.7242L81.4504 50.0002H80.3824ZM88.8236 50.1442C88.4316 50.1442 88.0516 50.0922 87.6836 49.9882C87.3156 49.8842 86.9636 49.6882 86.6276 49.4002L87.0596 48.7642C87.3316 48.9802 87.6076 49.1322 87.8876 49.2202C88.1676 49.3082 88.4556 49.3522 88.7516 49.3522C89.0156 49.3522 89.2556 49.3122 89.4716 49.2322C89.6956 49.1442 89.8716 49.0242 89.9996 48.8722C90.1356 48.7122 90.2036 48.5242 90.2036 48.3082C90.2036 47.9882 90.0756 47.7482 89.8196 47.5882C89.5636 47.4282 89.1956 47.3482 88.7156 47.3482H87.8996V46.5922H88.5716C89.0436 46.5922 89.3916 46.5122 89.6156 46.3522C89.8476 46.1922 89.9636 45.9722 89.9636 45.6922C89.9636 45.3962 89.8516 45.1762 89.6276 45.0322C89.4036 44.8802 89.1156 44.8042 88.7636 44.8042C88.4276 44.8042 88.1356 44.8482 87.8876 44.9362C87.6476 45.0242 87.4116 45.1522 87.1796 45.3202L86.7596 44.6722C87.0396 44.4722 87.3436 44.3162 87.6716 44.2042C88.0076 44.0842 88.3876 44.0242 88.8116 44.0242C89.1956 44.0242 89.5476 44.0842 89.8676 44.2042C90.1876 44.3162 90.4436 44.4882 90.6356 44.7202C90.8356 44.9442 90.9356 45.2322 90.9356 45.5842C90.9356 45.8722 90.8516 46.1322 90.6836 46.3642C90.5156 46.5962 90.2756 46.7762 89.9636 46.9042V46.9522C90.3156 47.0322 90.6076 47.1882 90.8396 47.4202C91.0716 47.6522 91.1876 47.9762 91.1876 48.3922C91.1876 48.7522 91.0756 49.0642 90.8516 49.3282C90.6356 49.5922 90.3476 49.7962 89.9876 49.9402C89.6356 50.0762 89.2476 50.1442 88.8236 50.1442ZM93.9843 50.1442C93.6643 50.1442 93.3723 50.0802 93.1083 49.9522C92.8523 49.8162 92.6483 49.6282 92.4963 49.3882C92.3443 49.1402 92.2683 48.8402 92.2683 48.4882C92.2683 47.8322 92.5563 47.3362 93.1323 47.0002C93.7083 46.6642 94.6203 46.4282 95.8683 46.2922C95.8603 46.0522 95.8203 45.8202 95.7483 45.5962C95.6843 45.3722 95.5643 45.1922 95.3883 45.0562C95.2123 44.9202 94.9683 44.8522 94.6562 44.8522C94.3203 44.8522 94.0043 44.9162 93.7083 45.0442C93.4123 45.1642 93.1483 45.3002 92.9163 45.4522L92.5323 44.7802C92.7083 44.6602 92.9163 44.5442 93.1562 44.4322C93.3963 44.3122 93.6563 44.2162 93.9363 44.1442C94.2163 44.0642 94.5123 44.0242 94.8242 44.0242C95.2963 44.0242 95.6803 44.1242 95.9763 44.3242C96.2803 44.5162 96.5003 44.7922 96.6363 45.1522C96.7803 45.5122 96.8523 45.9362 96.8523 46.4242V50.0002H96.0363L95.9523 49.3042H95.9163C95.6363 49.5362 95.3363 49.7362 95.0163 49.9042C94.6963 50.0642 94.3523 50.1442 93.9843 50.1442ZM94.2603 49.3282C94.5483 49.3282 94.8163 49.2642 95.0643 49.1362C95.3203 49.0082 95.5883 48.8202 95.8683 48.5722V47.0002C95.2123 47.0802 94.6923 47.1842 94.3083 47.3122C93.9323 47.4322 93.6603 47.5842 93.4923 47.7682C93.3243 47.9522 93.2402 48.1722 93.2402 48.4282C93.2402 48.7482 93.3403 48.9802 93.5403 49.1242C93.7403 49.2602 93.9803 49.3282 94.2603 49.3282ZM98.6871 50.0002V44.1682H99.6471V46.5922C99.6471 46.9122 99.6391 47.2522 99.6231 47.6122C99.6071 47.9722 99.5831 48.3602 99.5511 48.7762H99.5991C99.7111 48.5602 99.8351 48.3322 99.9711 48.0922C100.115 47.8442 100.243 47.6322 100.355 47.4562L102.419 44.1682H103.499V50.0002H102.539V47.5762C102.539 47.2642 102.547 46.9282 102.563 46.5682C102.579 46.2002 102.603 45.8082 102.635 45.3922H102.587C102.475 45.6082 102.351 45.8402 102.215 46.0882C102.079 46.3282 101.951 46.5402 101.831 46.7242L99.7551 50.0002H98.6871ZM101.123 43.1362C100.675 43.1362 100.315 43.0482 100.043 42.8722C99.7791 42.6962 99.5831 42.4682 99.4551 42.1882C99.3351 41.9082 99.2631 41.6162 99.2391 41.3122H100.055C100.063 41.5362 100.099 41.7442 100.163 41.9362C100.235 42.1282 100.347 42.2802 100.499 42.3922C100.651 42.5042 100.859 42.5602 101.123 42.5602C101.387 42.5602 101.595 42.5042 101.747 42.3922C101.899 42.2802 102.007 42.1282 102.071 41.9362C102.143 41.7442 102.183 41.5362 102.191 41.3122H103.007C102.991 41.6162 102.919 41.9082 102.791 42.1882C102.663 42.4682 102.463 42.6962 102.191 42.8722C101.927 43.0482 101.571 43.1362 101.123 43.1362ZM105.472 50.0002V44.1682H106.456V46.5322H109.264V44.1682H110.248V50.0002H109.264V47.4082H106.456V50.0002H105.472ZM113.555 50.1442C113.235 50.1442 112.943 50.0802 112.679 49.9522C112.423 49.8162 112.219 49.6282 112.067 49.3882C111.915 49.1402 111.839 48.8402 111.839 48.4882C111.839 47.8322 112.127 47.3362 112.703 47.0002C113.279 46.6642 114.191 46.4282 115.439 46.2922C115.431 46.0522 115.391 45.8202 115.319 45.5962C115.255 45.3722 115.135 45.1922 114.959 45.0562C114.783 44.9202 114.539 44.8522 114.227 44.8522C113.891 44.8522 113.575 44.9162 113.279 45.0442C112.983 45.1642 112.719 45.3002 112.487 45.4522L112.103 44.7802C112.279 44.6602 112.487 44.5442 112.727 44.4322C112.967 44.3122 113.227 44.2162 113.507 44.1442C113.787 44.0642 114.083 44.0242 114.395 44.0242C114.867 44.0242 115.251 44.1242 115.547 44.3242C115.851 44.5162 116.071 44.7922 116.207 45.1522C116.351 45.5122 116.423 45.9362 116.423 46.4242V50.0002H115.607L115.523 49.3042H115.487C115.207 49.5362 114.907 49.7362 114.587 49.9042C114.267 50.0642 113.923 50.1442 113.555 50.1442ZM113.831 49.3282C114.119 49.3282 114.387 49.2642 114.635 49.1362C114.891 49.0082 115.159 48.8202 115.439 48.5722V47.0002C114.783 47.0802 114.263 47.1842 113.879 47.3122C113.503 47.4322 113.231 47.5842 113.063 47.7682C112.895 47.9522 112.811 48.1722 112.811 48.4282C112.811 48.7482 112.911 48.9802 113.111 49.1242C113.311 49.2602 113.551 49.3282 113.831 49.3282ZM120.66 50.0002V44.1682H121.62V46.5922C121.62 46.9122 121.612 47.2522 121.596 47.6122C121.58 47.9722 121.556 48.3602 121.524 48.7762H121.572C121.684 48.5602 121.808 48.3322 121.944 48.0922C122.088 47.8442 122.216 47.6322 122.328 47.4562L124.392 44.1682H125.472V50.0002H124.512V47.5762C124.512 47.2642 124.52 46.9282 124.536 46.5682C124.552 46.2002 124.576 45.8082 124.608 45.3922H124.56C124.448 45.6082 124.324 45.8402 124.188 46.0882C124.052 46.3282 123.924 46.5402 123.804 46.7242L121.728 50.0002H120.66ZM132.163 50.1442C131.643 50.1442 131.175 50.0242 130.759 49.7842C130.343 49.5442 130.015 49.1962 129.775 48.7402C129.535 48.2842 129.415 47.7362 129.415 47.0962C129.415 46.4402 129.543 45.8842 129.799 45.4282C130.063 44.9722 130.407 44.6242 130.831 44.3842C131.263 44.1442 131.727 44.0242 132.223 44.0242C132.607 44.0242 132.935 44.0882 133.207 44.2162C133.487 44.3442 133.727 44.5082 133.927 44.7082L133.435 45.3202C133.291 45.1762 133.119 45.0642 132.919 44.9842C132.727 44.8962 132.507 44.8522 132.259 44.8522C131.915 44.8522 131.603 44.9482 131.323 45.1402C131.051 45.3242 130.835 45.5842 130.675 45.9202C130.515 46.2562 130.435 46.6482 130.435 47.0962C130.435 47.5362 130.511 47.9242 130.663 48.2602C130.815 48.5962 131.027 48.8602 131.299 49.0522C131.571 49.2362 131.887 49.3282 132.247 49.3282C132.519 49.3282 132.771 49.2762 133.003 49.1722C133.235 49.0682 133.435 48.9362 133.603 48.7762L134.035 49.3762C133.787 49.6082 133.507 49.7962 133.195 49.9402C132.883 50.0762 132.539 50.1442 132.163 50.1442ZM136.487 50.0002V44.9722H134.531V44.1682H139.427V44.9722H137.471V50.0002H136.487ZM140.722 52.4602V44.1682H141.538L141.622 44.8402H141.658C141.922 44.6162 142.214 44.4242 142.534 44.2642C142.854 44.1042 143.182 44.0242 143.518 44.0242C144.014 44.0242 144.434 44.1482 144.778 44.3962C145.122 44.6362 145.382 44.9802 145.558 45.4282C145.734 45.8682 145.822 46.3922 145.822 47.0002C145.822 47.6562 145.702 48.2202 145.462 48.6922C145.23 49.1642 144.922 49.5242 144.538 49.7722C144.154 50.0202 143.742 50.1442 143.302 50.1442C143.038 50.1442 142.77 50.0842 142.498 49.9642C142.226 49.8442 141.954 49.6802 141.682 49.4722L141.706 50.4922V52.4602H140.722ZM143.134 49.3162C143.454 49.3162 143.738 49.2242 143.986 49.0402C144.242 48.8562 144.442 48.5922 144.586 48.2482C144.73 47.8962 144.802 47.4802 144.802 47.0002C144.802 46.5762 144.75 46.2042 144.646 45.8842C144.542 45.5562 144.378 45.3042 144.154 45.1282C143.93 44.9442 143.634 44.8522 143.266 44.8522C143.026 44.8522 142.778 44.9202 142.522 45.0562C142.266 45.1842 141.994 45.3802 141.706 45.6442V48.7042C141.978 48.9282 142.234 49.0882 142.474 49.1842C142.722 49.2722 142.942 49.3162 143.134 49.3162ZM149.647 50.1442C149.175 50.1442 148.731 50.0242 148.315 49.7842C147.907 49.5442 147.575 49.1962 147.319 48.7402C147.071 48.2842 146.947 47.7362 146.947 47.0962C146.947 46.4402 147.071 45.8842 147.319 45.4282C147.575 44.9722 147.907 44.6242 148.315 44.3842C148.731 44.1442 149.175 44.0242 149.647 44.0242C150.127 44.0242 150.571 44.1442 150.979 44.3842C151.387 44.6242 151.715 44.9722 151.963 45.4282C152.219 45.8842 152.347 46.4402 152.347 47.0962C152.347 47.7362 152.219 48.2842 151.963 48.7402C151.715 49.1962 151.387 49.5442 150.979 49.7842C150.571 50.0242 150.127 50.1442 149.647 50.1442ZM149.647 49.3282C149.983 49.3282 150.279 49.2362 150.535 49.0522C150.791 48.8602 150.987 48.5962 151.123 48.2602C151.259 47.9242 151.327 47.5362 151.327 47.0962C151.327 46.6482 151.259 46.2562 151.123 45.9202C150.987 45.5762 150.791 45.3122 150.535 45.1282C150.279 44.9362 149.983 44.8402 149.647 44.8402C149.311 44.8402 149.015 44.9362 148.759 45.1282C148.511 45.3122 148.315 45.5762 148.171 45.9202C148.035 46.2562 147.967 46.6482 147.967 47.0962C147.967 47.5362 148.035 47.9242 148.171 48.2602C148.315 48.5962 148.511 48.8602 148.759 49.0522C149.015 49.2362 149.311 49.3282 149.647 49.3282ZM153.882 50.0002V44.1682H154.842V46.5922C154.842 46.9122 154.834 47.2522 154.818 47.6122C154.802 47.9722 154.778 48.3602 154.746 48.7762H154.794C154.906 48.5602 155.03 48.3322 155.166 48.0922C155.31 47.8442 155.438 47.6322 155.55 47.4562L157.614 44.1682H158.694V50.0002H157.734V47.5762C157.734 47.2642 157.742 46.9282 157.758 46.5682C157.774 46.2002 157.798 45.8082 157.83 45.3922H157.782C157.67 45.6082 157.546 45.8402 157.41 46.0882C157.274 46.3282 157.146 46.5402 157.026 46.7242L154.95 50.0002H153.882ZM161.952 50.0002V44.9722H159.996V44.1682H164.892V44.9722H162.936V50.0002H161.952ZM168.387 50.1442C167.867 50.1442 167.391 50.0242 166.959 49.7842C166.535 49.5362 166.199 49.1882 165.951 48.7402C165.703 48.2842 165.579 47.7322 165.579 47.0842C165.579 46.4522 165.707 45.9082 165.963 45.4522C166.219 44.9962 166.547 44.6442 166.947 44.3962C167.347 44.1482 167.771 44.0242 168.219 44.0242C168.715 44.0242 169.135 44.1402 169.479 44.3722C169.831 44.5962 170.095 44.9122 170.271 45.3202C170.447 45.7282 170.535 46.2082 170.535 46.7602C170.535 46.8642 170.531 46.9642 170.523 47.0602C170.523 47.1562 170.511 47.2522 170.487 47.3482H166.287V46.5682H169.647C169.647 46.0082 169.523 45.5802 169.275 45.2842C169.035 44.9802 168.687 44.8282 168.231 44.8282C167.967 44.8282 167.707 44.9042 167.451 45.0562C167.195 45.2002 166.983 45.4362 166.815 45.7642C166.655 46.0922 166.575 46.5282 166.575 47.0722C166.575 47.5682 166.659 47.9842 166.827 48.3202C167.003 48.6562 167.239 48.9122 167.535 49.0882C167.831 49.2562 168.155 49.3402 168.507 49.3402C168.787 49.3402 169.047 49.3002 169.287 49.2202C169.535 49.1402 169.759 49.0322 169.959 48.8962L170.319 49.5442C170.063 49.7202 169.775 49.8642 169.455 49.9762C169.143 50.0882 168.787 50.1442 168.387 50.1442ZM171.64 50.1082C171.536 50.1082 171.444 50.1002 171.364 50.0842C171.284 50.0682 171.2 50.0442 171.112 50.0122L171.304 49.1122C171.344 49.1202 171.384 49.1322 171.424 49.1482C171.472 49.1562 171.52 49.1602 171.568 49.1602C171.768 49.1602 171.936 49.0642 172.072 48.8722C172.208 48.6722 172.3 48.3642 172.348 47.9482C172.428 47.3242 172.504 46.6962 172.576 46.0642C172.648 45.4322 172.72 44.8002 172.792 44.1682H176.38V50.0002H175.384V44.9722H173.572C173.508 45.5082 173.444 46.0482 173.38 46.5922C173.324 47.1282 173.26 47.6642 173.188 48.2002C173.108 48.8322 172.936 49.3082 172.672 49.6282C172.416 49.9482 172.072 50.1082 171.64 50.1082ZM178.351 50.0002V44.1682H179.335V46.3162H180.439C180.895 46.3162 181.299 46.3802 181.651 46.5082C182.003 46.6362 182.275 46.8362 182.467 47.1082C182.659 47.3722 182.755 47.7162 182.755 48.1402C182.755 48.5722 182.659 48.9242 182.467 49.1962C182.275 49.4682 182.003 49.6722 181.651 49.8082C181.299 49.9362 180.895 50.0002 180.439 50.0002H178.351ZM179.335 49.2082H180.331C180.827 49.2082 181.191 49.1242 181.423 48.9562C181.663 48.7802 181.783 48.5082 181.783 48.1402C181.783 47.7722 181.663 47.5042 181.423 47.3362C181.191 47.1682 180.827 47.0842 180.331 47.0842H179.335V49.2082ZM186.562 50.1442C186.042 50.1442 185.574 50.0242 185.158 49.7842C184.742 49.5442 184.414 49.1962 184.174 48.7402C183.934 48.2842 183.814 47.7362 183.814 47.0962C183.814 46.4402 183.942 45.8842 184.198 45.4282C184.462 44.9722 184.806 44.6242 185.23 44.3842C185.662 44.1442 186.126 44.0242 186.622 44.0242C187.006 44.0242 187.334 44.0882 187.606 44.2162C187.886 44.3442 188.126 44.5082 188.326 44.7082L187.834 45.3202C187.69 45.1762 187.518 45.0642 187.318 44.9842C187.126 44.8962 186.906 44.8522 186.658 44.8522C186.314 44.8522 186.002 44.9482 185.722 45.1402C185.45 45.3242 185.234 45.5842 185.074 45.9202C184.914 46.2562 184.834 46.6482 184.834 47.0962C184.834 47.5362 184.91 47.9242 185.062 48.2602C185.214 48.5962 185.426 48.8602 185.698 49.0522C185.97 49.2362 186.286 49.3282 186.646 49.3282C186.918 49.3282 187.17 49.2762 187.402 49.1722C187.634 49.0682 187.834 48.9362 188.002 48.7762L188.434 49.3762C188.186 49.6082 187.906 49.7962 187.594 49.9402C187.282 50.0762 186.938 50.1442 186.562 50.1442ZM190.885 50.0002V44.9722H188.929V44.1682H193.825V44.9722H191.869V50.0002H190.885ZM195.121 50.0002V44.1682H197.365C197.789 44.1682 198.161 44.2162 198.481 44.3122C198.809 44.4082 199.061 44.5682 199.237 44.7922C199.421 45.0082 199.513 45.2922 199.513 45.6442C199.513 45.9642 199.425 46.2322 199.249 46.4482C199.081 46.6562 198.845 46.8042 198.541 46.8922V46.9402C198.765 46.9802 198.969 47.0602 199.153 47.1802C199.337 47.2922 199.485 47.4442 199.597 47.6362C199.709 47.8202 199.765 48.0482 199.765 48.3202C199.765 48.7122 199.665 49.0322 199.465 49.2802C199.273 49.5282 199.001 49.7122 198.649 49.8322C198.305 49.9442 197.909 50.0002 197.461 50.0002H195.121ZM196.093 46.5922H197.197C197.677 46.5922 198.021 46.5162 198.229 46.3642C198.437 46.2042 198.541 45.9962 198.541 45.7402C198.541 45.4602 198.441 45.2482 198.241 45.1042C198.041 44.9522 197.717 44.8762 197.269 44.8762H196.093V46.5922ZM196.093 49.2922H197.353C197.841 49.2922 198.201 49.2042 198.433 49.0282C198.665 48.8522 198.781 48.6002 198.781 48.2722C198.781 47.9842 198.653 47.7602 198.397 47.6002C198.149 47.4322 197.777 47.3482 197.281 47.3482H196.093V49.2922ZM202.558 50.1442C202.238 50.1442 201.946 50.0802 201.682 49.9522C201.426 49.8162 201.222 49.6282 201.07 49.3882C200.918 49.1402 200.842 48.8402 200.842 48.4882C200.842 47.8322 201.13 47.3362 201.706 47.0002C202.282 46.6642 203.194 46.4282 204.442 46.2922C204.434 46.0522 204.394 45.8202 204.322 45.5962C204.258 45.3722 204.138 45.1922 203.962 45.0562C203.786 44.9202 203.542 44.8522 203.23 44.8522C202.894 44.8522 202.578 44.9162 202.282 45.0442C201.986 45.1642 201.722 45.3002 201.49 45.4522L201.106 44.7802C201.282 44.6602 201.49 44.5442 201.73 44.4322C201.97 44.3122 202.23 44.2162 202.51 44.1442C202.79 44.0642 203.086 44.0242 203.398 44.0242C203.87 44.0242 204.254 44.1242 204.55 44.3242C204.854 44.5162 205.074 44.7922 205.21 45.1522C205.354 45.5122 205.426 45.9362 205.426 46.4242V50.0002H204.61L204.526 49.3042H204.49C204.21 49.5362 203.91 49.7362 203.59 49.9042C203.27 50.0642 202.926 50.1442 202.558 50.1442ZM202.834 49.3282C203.122 49.3282 203.39 49.2642 203.638 49.1362C203.894 49.0082 204.162 48.8202 204.442 48.5722V47.0002C203.786 47.0802 203.266 47.1842 202.882 47.3122C202.506 47.4322 202.234 47.5842 202.066 47.7682C201.898 47.9522 201.814 48.1722 201.814 48.4282C201.814 48.7482 201.914 48.9802 202.114 49.1242C202.314 49.2602 202.554 49.3282 202.834 49.3282Z" fill="#444444"/>
<path d="M74.54 18V4.96H79.02C79.98 4.96 80.8467 5.09333 81.62 5.36C82.4067 5.61333 83.0333 6.04667 83.5 6.66C83.9667 7.27333 84.2 8.10667 84.2 9.16C84.2 10.1733 83.9667 11.0067 83.5 11.66C83.0333 12.3133 82.4133 12.8 81.64 13.12C80.8667 13.4267 80.02 13.58 79.1 13.58H77.48V18H74.54ZM77.48 11.24H78.92C79.7333 11.24 80.3333 11.06 80.72 10.7C81.12 10.34 81.32 9.82667 81.32 9.16C81.32 8.46667 81.1067 7.98667 80.68 7.72C80.2533 7.44 79.64 7.3 78.84 7.3H77.48V11.24ZM90.2244 18.24C89.2777 18.24 88.4244 18.0333 87.6644 17.62C86.9044 17.2067 86.3044 16.6133 85.8644 15.84C85.4244 15.0667 85.2044 14.1333 85.2044 13.04C85.2044 11.96 85.4244 11.0333 85.8644 10.26C86.3177 9.48667 86.9044 8.89333 87.6244 8.48C88.3444 8.05333 89.0977 7.84 89.8844 7.84C90.831 7.84 91.6177 8.05333 92.2444 8.48C92.871 8.89333 93.3377 9.46 93.6444 10.18C93.951 10.9 94.1044 11.7067 94.1044 12.6C94.1044 12.8533 94.091 13.1067 94.0644 13.36C94.0377 13.6 94.011 13.7933 93.9844 13.94H87.4844L87.4444 11.9H91.5844C91.5844 11.38 91.4577 10.9533 91.2044 10.62C90.951 10.2733 90.531 10.1 89.9444 10.1C89.6244 10.1 89.311 10.1867 89.0044 10.36C88.6977 10.5333 88.4444 10.8333 88.2444 11.26C88.0444 11.6867 87.951 12.28 87.9644 13.04C87.9777 13.7867 88.111 14.3733 88.3644 14.8C88.631 15.2267 88.9644 15.5333 89.3644 15.72C89.7644 15.8933 90.1844 15.98 90.6244 15.98C91.011 15.98 91.3777 15.9267 91.7244 15.82C92.0844 15.7 92.4377 15.54 92.7844 15.34L93.7444 17.14C93.251 17.4867 92.691 17.76 92.0644 17.96C91.4377 18.1467 90.8244 18.24 90.2244 18.24ZM96.1359 18V8.08H99.5559L100.776 11.46C100.909 11.8333 101.029 12.2 101.136 12.56C101.256 12.92 101.363 13.3 101.456 13.7H101.536C101.643 13.3 101.743 12.92 101.836 12.56C101.943 12.2 102.056 11.8333 102.176 11.46L103.316 8.08H106.736V18H104.116V15.46C104.116 15.1 104.136 14.6533 104.176 14.12C104.216 13.5867 104.256 13.0533 104.296 12.52C104.349 11.9867 104.396 11.5333 104.436 11.16H104.356C104.223 11.6133 104.063 12.1 103.876 12.62C103.703 13.1267 103.543 13.5867 103.396 14L102.296 17.14H100.576L99.4359 14C99.3026 13.5867 99.1426 13.12 98.9559 12.6C98.7826 12.08 98.6226 11.6 98.4759 11.16H98.3959C98.4359 11.5333 98.4826 11.9867 98.5359 12.52C98.5893 13.0533 98.6293 13.5867 98.6559 14.12C98.6826 14.6533 98.6959 15.1 98.6959 15.46V18H96.1359ZM111.779 18.24C111.192 18.24 110.606 18.1467 110.019 17.96C109.432 17.7733 108.912 17.46 108.459 17.02L109.559 15.32C109.812 15.52 110.106 15.6867 110.439 15.82C110.772 15.94 111.112 16 111.459 16C112.192 16 112.779 15.7667 113.219 15.3C113.659 14.8333 113.879 14.08 113.879 13.04C113.879 11.96 113.672 11.2 113.259 10.76C112.859 10.3067 112.299 10.08 111.579 10.08C111.246 10.08 110.939 10.1333 110.659 10.24C110.379 10.3333 110.112 10.4733 109.859 10.66L108.619 9C108.992 8.65333 109.446 8.37333 109.979 8.16C110.526 7.94667 111.112 7.84 111.739 7.84C112.659 7.84 113.492 8.03333 114.239 8.42C114.986 8.79333 115.579 9.36667 116.019 10.14C116.459 10.9 116.679 11.8667 116.679 13.04C116.679 14.1733 116.466 15.1267 116.039 15.9C115.612 16.6733 115.026 17.26 114.279 17.66C113.546 18.0467 112.712 18.24 111.779 18.24ZM110.419 13.94V11.9H115.519V13.94H110.419ZM118.695 18V8.08H121.595V11.74H122.915L123.795 9.92C124.075 9.36 124.368 8.93333 124.675 8.64C124.981 8.33333 125.321 8.12667 125.695 8.02C126.068 7.91333 126.488 7.86 126.955 7.86C127.261 7.86 127.528 7.90667 127.755 8L127.295 10.7C127.241 10.6733 127.181 10.66 127.115 10.66C127.048 10.6467 126.981 10.64 126.915 10.64C126.675 10.64 126.455 10.7 126.255 10.82C126.055 10.9267 125.855 11.1933 125.655 11.62L125.135 12.8L128.235 18H125.055L122.995 14.04H121.595V18H118.695ZM133.504 18.24C132.571 18.24 131.724 18.0333 130.964 17.62C130.218 17.2067 129.624 16.6133 129.184 15.84C128.758 15.0667 128.544 14.1333 128.544 13.04C128.544 11.9467 128.784 11.0133 129.264 10.24C129.744 9.46667 130.378 8.87333 131.164 8.46C131.951 8.04667 132.798 7.84 133.704 7.84C134.318 7.84 134.864 7.94 135.344 8.14C135.838 8.32667 136.258 8.58 136.604 8.9L135.224 10.72C135.051 10.5733 134.851 10.4533 134.624 10.36C134.411 10.2667 134.164 10.22 133.884 10.22C133.418 10.22 133.011 10.3333 132.664 10.56C132.318 10.7867 132.044 11.1133 131.844 11.54C131.644 11.9667 131.544 12.4667 131.544 13.04C131.544 13.6133 131.644 14.1133 131.844 14.54C132.044 14.9667 132.311 15.2933 132.644 15.52C132.991 15.7467 133.378 15.86 133.804 15.86C134.138 15.86 134.451 15.8 134.744 15.68C135.038 15.56 135.311 15.4067 135.564 15.22L136.724 17.02C136.311 17.3933 135.824 17.6933 135.264 17.92C134.704 18.1333 134.118 18.24 133.504 18.24Z" fill="black"/>
<defs>
<clipPath id="clip0_201_3244">
<rect width="58" height="58" fill="white"/>
</clipPath>
</defs>
</svg>
