<svg width="64" height="64" viewBox="0 0 64 64" fill="none" xmlns="http://www.w3.org/2000/svg">
<path fill-rule="evenodd" clip-rule="evenodd" d="M43.3142 2L62.0005 20.75V43.25L43.3142 62H20.7505L2.00049 43.25V20.75L20.7505 2H43.3142ZM32.0005 35.75V17V35.75Z" fill="#E8505B"/>
<path d="M32.0005 35.75V17M43.3142 2L62.0005 20.75V43.25L43.3142 62H20.7505L2.00049 43.25V20.75L20.7505 2H43.3142Z" stroke="white" stroke-width="3" stroke-linecap="square" stroke-linejoin="round"/>
<path d="M32.002 47.75C33.2446 47.75 34.252 46.7426 34.252 45.5C34.252 44.2574 33.2446 43.25 32.002 43.25C30.7593 43.25 29.752 44.2574 29.752 45.5C29.752 46.7426 30.7593 47.75 32.002 47.75Z" fill="white"/>
</svg>
